<svg xmlns="http://www.w3.org/2000/svg" viewBox="0 0 365.04 237.6"><defs><style>.a,.b{fill:#026634;}.a{fill-rule:evenodd;}</style></defs><path class="a" d="M165.85,168.07a5.78,5.78,0,0,1,.23,2.21c-.2,2.24-.14,2.63.79,3.6-2.46.65-3.88-1-3.65-3.83,0-.51.08-.91.08-1.25a2.77,2.77,0,0,0,1.56-.68h0a3.53,3.53,0,0,1,.28-.25,2.18,2.18,0,0,0,.74.22Z"/><path class="a" d="M162.45,168.75c0,.05,0,.14,0,.19-.37,2.22-.34,2.64.51,3.66a2.63,2.63,0,0,1-3.4-2.58,3.3,3.3,0,0,0,1.19-.14,3,3,0,0,0,1.53-1.16l0,0a.46.46,0,0,0,.2,0Z"/><path class="a" d="M155.85,163a3.18,3.18,0,0,1,1.41.11,5.06,5.06,0,0,0-.85,1.05v0A2.71,2.71,0,0,0,155.85,163Z"/><path class="a" d="M152.59,161.06c2.26-.14,3.34,1.34,3,3.6a2.54,2.54,0,0,0-.43.12,3.07,3.07,0,0,0-1.53,1.16,4.36,4.36,0,0,0-.59,1.36l-.06.26a1.6,1.6,0,0,0-.4.11,4.75,4.75,0,0,1,.06-2.86c.63-2.16.65-2.58-.08-3.69Z"/><path class="a" d="M149.64,158.8c2.55,0,3.46,2,2.46,4.67-.79,2.1-.85,2.53-.19,3.69-2.55,0-3.46-2-2.47-4.68C150.23,160.38,150.29,160,149.64,158.8Z"/><path class="a" d="M146.83,156.36c2.53.23,3.32,2.27,2.1,4.85-.94,2-1,2.43-.48,3.65-2.52-.22-3.32-2.27-2.1-4.84C147.29,158,147.37,157.58,146.83,156.36Z"/><path class="a" d="M144.2,153.75c2.52.43,3.11,2.52,1.73,5-1.11,1.95-1.22,2.35-.77,3.6-2.52-.43-3.12-2.52-1.73-5C144.54,155.39,144.65,155,144.2,153.75Z"/><path class="a" d="M141.59,150.94c2.49.51,3,2.64,1.53,5.08-1.16,1.9-1.3,2.29-.91,3.57-2.49-.51-3-2.64-1.53-5.07C141.84,152.62,142,152.22,141.59,150.94Z"/><path class="a" d="M139.32,148c2.44.7,2.81,2.86,1.13,5.16-1.3,1.81-1.47,2.21-1.19,3.48-2.43-.71-2.8-2.86-1.13-5.16C139.43,149.67,139.6,149.27,139.32,148Z"/><path class="a" d="M137.28,144.88c2.38.88,2.58,3.06.74,5.24-1.45,1.7-1.65,2.07-1.45,3.4-2.38-.87-2.58-3.06-.74-5.24C137.28,146.58,137.48,146.21,137.28,144.88Z"/><path class="a" d="M135.47,141.65c2.32,1.07,2.35,3.23.34,5.27-1.56,1.59-1.79,2-1.71,3.29-2.29-1.08-2.35-3.23-.34-5.28C135.32,143.35,135.55,143,135.47,141.65Z"/><path class="a" d="M133.68,138.25c2.27,1.16,2.21,3.31.14,5.3-1.64,1.53-1.87,1.87-1.81,3.2-2.27-1.16-2.24-3.32-.14-5.3C133.48,139.92,133.74,139.58,133.68,138.25Z"/><path class="a" d="M132.32,134.79c2.18,1.33,2,3.48-.26,5.27-1.72,1.42-2,1.73-2.07,3.06-2.18-1.33-2-3.49.26-5.27C132,136.43,132.26,136.12,132.32,134.79Z"/><path class="a" d="M131.21,131.24c2.07,1.48,1.7,3.63-.68,5.25-1.84,1.27-2.12,1.59-2.29,2.89-2.07-1.47-1.7-3.63.68-5.24C130.76,132.86,131,132.55,131.21,131.24Z"/><path class="a" d="M130.31,127.64c1.95,1.65,1.39,3.75-1.08,5.19-1.93,1.11-2.24,1.42-2.5,2.69-2-1.64-1.38-3.74,1.08-5.18C129.74,129.23,130.05,128.92,130.31,127.64Z"/><path class="a" d="M129.54,123.9c1.87,1.7,1.25,3.8-1.27,5.13-2,1.05-2.3,1.31-2.61,2.61-1.87-1.7-1.25-3.8,1.27-5.13C128.92,125.46,129.23,125.21,129.54,123.9Z"/><path class="a" d="M129.17,120.19c1.73,1.84,1,3.88-1.67,5-2.07.87-2.41,1.13-2.81,2.41-1.72-1.85-1-3.89,1.68-5C128.44,121.72,128.78,121.46,129.17,120.19Z"/><path class="a" d="M129.06,116.48c1.59,2,.65,3.94-2.07,4.87-2.13.71-2.47.94-3,2.16-1.58-2-.65-3.94,2.07-4.88C128.21,117.92,128.55,117.69,129.06,116.48Z"/><path class="a" d="M129,112.68c1.5,2,.48,4-2.24,4.79-2.15.62-2.52.85-3.06,2-1.5-2-.48-4,2.24-4.79C128.12,114.09,128.49,113.87,129,112.68Z"/><path class="a" d="M129.48,109c1.31,2.18.12,4-2.69,4.56-2.18.43-2.58.6-3.26,1.76-1.3-2.18-.11-4,2.69-4.56,2.19-.43,2.58-.6,3.24-1.76Z"/><path class="a" d="M130.05,105.28c1.19,2.24-.08,4-2.92,4.42-2.21.31-2.61.48-3.31,1.59-1.2-2.24.08-4,2.91-4.42C129,106.55,129.34,106.38,130.05,105.28Z"/><path class="a" d="M131,101.74c1,2.35-.48,4-3.35,4.11-2.24.11-2.63.19-3.45,1.24-1-2.35.48-4,3.34-4.11C129.74,102.87,130.14,102.78,131,101.74Z"/><path class="a" d="M132,98.08c.85,2.41-.68,3.94-3.55,3.94-2.24,0-2.63.08-3.51,1.08-.85-2.41.68-3.94,3.54-3.94C130.76,99.16,131.16,99.07,132,98.08Z"/><path class="a" d="M133.34,94.51c.74,2.44-.88,3.91-3.71,3.77-2.24-.12-2.64-.06-3.58.9-.73-2.43.88-3.91,3.72-3.77C132,95.53,132.4,95.47,133.34,94.51Z"/><path class="a" d="M135,91.22c.51,2.49-1.24,3.8-4.08,3.37-2.21-.34-2.63-.31-3.65.54-.52-2.49,1.24-3.8,4.08-3.37C133.54,92.1,134,92.07,135,91.22Z"/><path class="a" d="M136.74,87.87c.37,2.53-1.42,3.75-4.22,3.18-2.18-.45-2.61-.43-3.66.37-.37-2.52,1.42-3.74,4.22-3.18C135.27,88.7,135.69,88.67,136.74,87.87Z"/><path class="a" d="M138.81,84.84c.14,2.55-1.79,3.6-4.51,2.75-2.15-.65-2.55-.68-3.68,0-.14-2.55,1.78-3.6,4.51-2.75C137.28,85.52,137.68,85.55,138.81,84.84Z"/><path class="a" d="M141.05,81.75c0,2.55-2,3.52-4.65,2.55-2.1-.73-2.52-.79-3.68-.14,0-2.55,1.95-3.51,4.64-2.55C139.46,82.35,139.89,82.4,141.05,81.75Z"/><path class="a" d="M143.46,78.83c-.11,2.55-2.1,3.4-4.76,2.33-2.07-.85-2.5-.91-3.69-.32.12-2.55,2.1-3.4,4.76-2.32C141.84,79.37,142.27,79.43,143.46,78.83Z"/><path class="a" d="M146.12,76.28c-.34,2.52-2.41,3.2-5,1.87-2-1.05-2.38-1.13-3.63-.65.35-2.52,2.41-3.2,5-1.87C144.48,76.68,144.88,76.76,146.12,76.28Z"/><path class="a" d="M148.9,73.7c-.45,2.5-2.55,3.06-5,1.65-1.93-1.14-2.33-1.25-3.6-.83.45-2.49,2.55-3.09,5-1.64C147.23,74,147.63,74.13,148.9,73.7Z"/><path class="a" d="M151.88,71.52c-.71,2.44-2.84,2.83-5.16,1.16-1.82-1.3-2.21-1.47-3.49-1.16.71-2.44,2.84-2.81,5.16-1.16C150.21,71.66,150.6,71.83,151.88,71.52Z"/><path class="a" d="M155,69.36c-.83,2.41-3,2.7-5.22.91-1.76-1.39-2.13-1.56-3.43-1.33.82-2.41,3-2.69,5.22-.91C153.32,69.42,153.69,69.59,155,69.36Z"/><path class="a" d="M158.26,67.41c-.91,2.38-3.09,2.55-5.25.65-1.7-1.47-2.07-1.67-3.37-1.5.91-2.38,3.09-2.55,5.24-.65C156.56,67.38,157,67.58,158.26,67.41Z"/><path class="a" d="M161.6,65.91c-1.13,2.26-3.32,2.24-5.3.17-1.53-1.62-1.9-1.87-3.2-1.82,1.13-2.27,3.31-2.24,5.3-.17C159.93,65.71,160.3,66,161.6,65.91Z"/><path class="a" d="M165.12,64.4c-1.25,2.22-3.43,2.07-5.31-.08-1.44-1.7-1.78-2-3.11-2,1.24-2.21,3.43-2.07,5.3.09C163.44,64.15,163.78,64.4,165.12,64.4Z"/><path class="a" d="M168.63,63.36c-1.47,2.06-3.6,1.72-5.24-.6-1.28-1.84-1.59-2.13-2.92-2.24,1.47-2.07,3.6-1.73,5.24.6C167,63,167.3,63.24,168.63,63.36Z"/><path class="a" d="M172.29,62.39c-1.56,2-3.69,1.56-5.22-.85-1.19-1.9-1.5-2.18-2.8-2.38,1.55-2,3.68-1.56,5.21.85C170.67,61.91,171,62.19,172.29,62.39Z"/><path class="a" d="M176,61.63c-1.65,1.92-3.77,1.36-5.16-1.11-1.11-2-1.39-2.27-2.69-2.52,1.64-1.93,3.77-1.36,5.16,1.1C174.44,61.06,174.72,61.37,176,61.63Z"/><path class="a" d="M179.69,61.37c-1.85,1.76-3.89,1-5.05-1.61-.91-2-1.16-2.39-2.41-2.78,1.84-1.76,3.88-1,5.05,1.61C178.18,60.63,178.44,61,179.69,61.37Z"/><path class="a" d="M183.48,61.14c-1.92,1.68-3.91.8-5-1.87-.79-2.09-1-2.43-2.26-2.89,1.92-1.67,3.91-.79,5,1.87C182,60.35,182.24,60.69,183.48,61.14Z"/><path class="a" d="M187.28,61.17c-2,1.56-4,.6-4.84-2.12-.71-2.13-.91-2.5-2.13-3,2-1.56,4-.59,4.85,2.13C185.86,60.29,186.06,60.66,187.28,61.17Z"/><path class="a" d="M190.91,61.65c-2.15,1.37-4,.2-4.62-2.58-.48-2.18-.65-2.57-1.81-3.2,2.15-1.36,4-.2,4.62,2.58C189.58,60.63,189.75,61,190.91,61.65Z"/><path class="a" d="M194.68,62.22c-2.21,1.25-4,0-4.48-2.8-.37-2.22-.54-2.61-1.67-3.29,2.21-1.25,4,0,4.48,2.8C193.38,61.14,193.55,61.54,194.68,62.22Z"/><path class="a" d="M198.22,63.16c-2.32,1-4-.4-4.16-3.23-.14-2.24-.29-2.64-1.34-3.43,2.33-1,4,.39,4.17,3.23C197,62,197.17,62.36,198.22,63.16Z"/><path class="a" d="M201.85,64.21c-2.38.9-4-.6-4-3.46-.06-2.24-.14-2.64-1.17-3.49,2.39-.91,4,.6,4,3.46C200.72,63,200.83,63.36,201.85,64.21Z"/><path class="a" d="M205.42,65.51c-2.41.79-3.94-.77-3.85-3.63.06-2.24,0-2.63-1-3.54,2.41-.8,3.94.76,3.85,3.63C204.37,64.21,204.43,64.6,205.42,65.51Z"/><path class="a" d="M208.71,67.18c-2.49.57-3.82-1.16-3.46-4,.29-2.22.26-2.64-.62-3.63,2.49-.57,3.83,1.16,3.46,4C207.8,65.76,207.83,66.19,208.71,67.18Z"/><path class="a" d="M212.08,69c-2.49.42-3.77-1.33-3.28-4.17.39-2.21.37-2.64-.46-3.66,2.5-.42,3.77,1.34,3.29,4.17C211.23,67.52,211.26,68,212.08,69Z"/><path class="a" d="M215.12,71c-2.52.2-3.63-1.7-2.87-4.45.6-2.16.63-2.58-.11-3.69,2.52-.2,3.63,1.7,2.86,4.45C214.41,69.51,214.38,69.93,215.12,71Z"/><path class="a" d="M218.21,73.25c-2.55.08-3.55-1.87-2.67-4.59.71-2.13.74-2.56.06-3.69,2.55-.08,3.54,1.87,2.66,4.59C217.56,71.69,217.53,72.11,218.21,73.25Z"/><path class="a" d="M221.13,75.69c-2.55-.06-3.46-2-2.44-4.71.79-2.1.85-2.49.23-3.68,2.55,0,3.45,2,2.43,4.7C220.56,74.1,220.5,74.5,221.13,75.69Z"/><path class="a" d="M223.68,78.35c-2.52-.28-3.26-2.35-2-4.9,1-2,1.08-2.41.6-3.63,2.52.28,3.26,2.35,2,4.9C223.28,76.73,223.2,77.13,223.68,78.35Z"/><path class="a" d="M226.26,81.16c-2.52-.4-3.15-2.5-1.76-5,1.08-2,1.19-2.36.77-3.6,2.52.39,3.14,2.49,1.75,5C226,79.51,225.83,79.91,226.26,81.16Z"/><path class="a" d="M228.44,84.13c-2.47-.65-2.89-2.78-1.27-5.13,1.27-1.84,1.41-2.24,1.07-3.51,2.47.65,2.89,2.78,1.28,5.13C228.24,82.46,228.1,82.86,228.44,84.13Z"/><path class="a" d="M230.59,87.25c-2.43-.76-2.74-2.92-1-5.19,1.36-1.78,1.54-2.15,1.25-3.45,2.44.76,2.75,2.92,1,5.18C230.48,85.58,230.31,86,230.59,87.25Z"/><path class="a" d="M232.55,90.51c-2.38-.88-2.61-3-.79-5.24,1.44-1.73,1.61-2.1,1.41-3.4,2.39.87,2.61,3,.8,5.24C232.52,88.84,232.35,89.21,232.55,90.51Z"/><path class="a" d="M234.05,93.88c-2.29-1.07-2.29-3.26-.28-5.27,1.59-1.59,1.81-1.93,1.73-3.26,2.29,1.11,2.29,3.26.28,5.27C234.19,92.21,234,92.55,234.05,93.88Z"/><path class="a" d="M235.56,97.4c-2.24-1.19-2.16-3.37,0-5.3,1.67-1.5,1.9-1.84,1.9-3.18,2.24,1.19,2.15,3.38,0,5.3C235.78,95.73,235.56,96.07,235.56,97.4Z"/><path class="a" d="M236.58,100.94c-2.13-1.42-1.82-3.57.48-5.27,1.81-1.33,2.07-1.64,2.18-3,2.13,1.42,1.81,3.57-.48,5.28C236.94,99.3,236.69,99.61,236.58,100.94Z"/><path class="a" d="M237.57,104.6c-2-1.5-1.65-3.66.73-5.25,1.88-1.24,2.16-1.53,2.33-2.86,2,1.5,1.64,3.66-.74,5.25C238,103,237.74,103.27,237.57,104.6Z"/><path class="a" d="M238.3,108.34c-2-1.62-1.44-3.74,1-5.19,1.92-1.13,2.24-1.44,2.46-2.75,2,1.62,1.45,3.75-1,5.19C238.84,106.72,238.53,107,238.3,108.34Z"/><path class="a" d="M238.56,112c-1.79-1.79-1.08-3.86,1.5-5.08,2-1,2.36-1.22,2.72-2.49,1.79,1.78,1.08,3.85-1.5,5.07C239.27,110.47,238.93,110.72,238.56,112Z"/><path class="a" d="M238.79,115.8c-1.7-1.9-.88-3.92,1.75-5,2.07-.85,2.41-1.08,2.84-2.36,1.7,1.9.88,3.92-1.76,5C239.55,114.29,239.21,114.52,238.79,115.8Z"/><path class="a" d="M238.59,119.48c-1.53-2-.51-4,2.21-4.79,2.15-.65,2.49-.85,3.06-2.07,1.53,2,.51,4-2.21,4.79C239.5,118.06,239.16,118.26,238.59,119.48Z"/><path class="a" d="M238.3,123.31c-1.44-2.1-.36-4,2.41-4.71,2.16-.57,2.56-.76,3.12-1.95,1.45,2.09.37,4-2.41,4.7C239.27,121.92,238.87,122.12,238.3,123.31Z"/><path class="a" d="M237.68,127c-1.27-2.18-.06-4,2.75-4.53,2.21-.4,2.58-.57,3.26-1.7,1.28,2.18.06,4-2.75,4.53C238.73,125.69,238.36,125.86,237.68,127Z"/><path class="a" d="M236.77,130.62c-1.1-2.3.23-4,3.09-4.31,2.22-.23,2.64-.37,3.38-1.47,1.1,2.29-.23,4-3.09,4.31C237.94,129.37,237.51,129.51,236.77,130.62Z"/><path class="a" d="M235.64,134.19c-.94-2.35.54-4,3.4-4.05,2.24-.09,2.64-.17,3.49-1.22.93,2.35-.54,4-3.4,4.05C236.89,133.06,236.49,133.14,235.64,134.19Z"/><path class="a" d="M234.28,137.65c-.77-2.44.82-3.91,3.68-3.8,2.24.09,2.67,0,3.58-.93.76,2.43-.83,3.91-3.69,3.79C235.61,136.63,235.19,136.69,234.28,137.65Z"/><path class="a" d="M232.75,141.17c-.68-2.44,1-3.89,3.83-3.66,2.24.17,2.63.11,3.6-.82.68,2.43-1,3.88-3.83,3.65C234.11,140.17,233.71,140.23,232.75,141.17Z"/><path class="a" d="M230.91,144.42c-.49-2.49,1.24-3.79,4.08-3.37,2.21.34,2.63.31,3.66-.54.48,2.5-1.25,3.8-4.09,3.38C232.35,143.55,231.93,143.57,230.91,144.42Z"/><path class="a" d="M228.84,147.57c-.31-2.52,1.53-3.71,4.31-3.06,2.18.51,2.6.51,3.68-.28.31,2.52-1.53,3.71-4.31,3.06C230.34,146.78,229.91,146.78,228.84,147.57Z"/><path class="a" d="M226.6,150.55c-.12-2.55,1.78-3.57,4.53-2.75,2.16.65,2.55.68,3.69,0,.11,2.55-1.79,3.57-4.54,2.75C228.16,149.9,227.73,149.87,226.6,150.55Z"/><path class="a" d="M224.13,153.35c.06-2.55,2-3.43,4.71-2.41,2.09.83,2.49.88,3.68.26-.05,2.55-2,3.43-4.7,2.41C225.72,152.79,225.32,152.73,224.13,153.35Z"/><path class="a" d="M221.5,156c.25-2.52,2.29-3.29,4.87-2.07,2,1,2.44,1.05,3.66.54-.26,2.52-2.3,3.29-4.88,2.07C223.14,155.59,222.71,155.51,221.5,156Z"/><path class="a" d="M218.69,158.63c.34-2.53,2.41-3.21,5-1.87,2,1,2.38,1.13,3.63.65-.34,2.52-2.41,3.2-5,1.87C220.33,158.26,219.94,158.14,218.69,158.63Z"/><path class="a" d="M215.68,160.89c.52-2.49,2.64-3,5.08-1.5,1.9,1.19,2.29,1.31,3.57.94-.51,2.49-2.64,3-5.07,1.5C217.36,160.64,217,160.53,215.68,160.89Z"/><path class="a" d="M212.54,162.93c.71-2.43,2.86-2.8,5.16-1.13,1.81,1.3,2.21,1.47,3.48,1.19-.7,2.44-2.86,2.81-5.16,1.14C214.21,162.82,213.81,162.65,212.54,162.93Z"/><path class="a" d="M167.89,167.67c1.28.34,2,1.67,1.79,3.63s-.11,2.46.74,3.34c-2.27.63-3.6-.91-3.38-3.57.14-1.76.14-2.3-.39-3a3,3,0,0,0,1.22-.39l0,0Z"/><path class="a" d="M169.14,168.35c2.16-1,3.71.34,3.88,3,.15,2.07.26,2.44,1.25,3.21-2.15,1-3.71-.34-3.91-3-.14-2.07-.26-2.44-1.25-3.2Z"/><path class="a" d="M190.88,162.28c1.84-1.53,3.72-.68,4.62,1.85.71,2,.94,2.32,2.1,2.74-1.84,1.54-3.71.69-4.62-1.84C192.27,163.05,192,162.71,190.88,162.28Z"/><path class="a" d="M194.45,161.26c2-1.33,3.77-.31,4.43,2.3.51,2,.7,2.41,1.81,2.95-2,1.33-3.77.31-4.42-2.3C195.76,162.17,195.56,161.8,194.45,161.26Z"/><path class="a" d="M198.17,160.58c2.15-1.08,3.77.17,4.11,2.84.2,1.58.31,2.18.82,2.69l-.37.28a3,3,0,0,0-.48.57c-1.42,0-2.41-1.19-2.67-3.23s-.39-2.47-1.41-3.18Z"/><path class="a" d="M202.11,160.33c2.29-.71,3.71.79,3.57,3.48a9.18,9.18,0,0,0,0,1.9,3,3,0,0,0-1.22-.11,2.69,2.69,0,0,0-1.14.37,5,5,0,0,1-.36-2.27C203.07,161.57,203,161.21,202.11,160.33Z"/><path class="a" d="M206.16,160.78c2.13-.17,3.18,1.19,2.92,3.32a3.06,3.06,0,0,0-1.16-.06,2.85,2.85,0,0,0-1.7.88l-.06.06c0-.23.09-.46.14-.68.54-2.05.57-2.44-.14-3.49Z"/><path class="a" d="M210.16,162.14a3.91,3.91,0,0,1,.68.2,2.83,2.83,0,0,0-.57.25,2.3,2.3,0,0,0-.14-.42Z"/><path class="a" d="M215.09,168a4.81,4.81,0,0,1-1.19,1.61c-1.53,1.48-1.76,1.82-1.7,3.07a2.77,2.77,0,0,1-1.59-1.73,5.13,5.13,0,0,0,.71-.94,3.11,3.11,0,0,0,1.13.06,2.85,2.85,0,0,0,1.7-.88A4.13,4.13,0,0,0,215,168Z"/><path class="a" d="M216.42,167.84c1.82,1.59,1.28,3.6-1.1,4.9-1.87,1-2.16,1.31-2.44,2.53-1.82-1.59-1.28-3.6,1.1-4.91C215.85,169.34,216.14,169.06,216.42,167.84Z"/><path class="a" d="M218,171.35c1.56,1.85.74,3.75-1.81,4.71-2,.74-2.33,1-2.78,2.15-1.56-1.84-.74-3.74,1.84-4.7,2-.74,2.33-1,2.78-2.16Z"/><path class="a" d="M219.11,175.29c1.14,2.16-.11,3.83-2.8,4.2-2.13.28-2.5.42-3.2,1.5-1.14-2.15.11-3.83,2.8-4.19C218,176.51,218.41,176.37,219.11,175.29Z"/><path class="a" d="M211.21,193.12c-1.45,2-3.52,1.62-5.05-.65-1.22-1.78-1.5-2.07-2.78-2.21,1.45-2,3.52-1.62,5.05.65C209.65,192.7,209.93,193,211.21,193.12Z"/><path class="a" d="M207.61,195.14c-1.85,1.61-3.77.82-4.79-1.76-.8-2-1-2.35-2.24-2.78,1.84-1.62,3.77-.82,4.79,1.76C206.16,194.37,206.39,194.71,207.61,195.14Z"/><path class="a" d="M203.89,196.13c-2.07,1.33-3.85.25-4.5-2.44-.49-2.1-.68-2.47-1.82-3.09,2.07-1.33,3.86-.25,4.51,2.44C202.56,195.14,202.76,195.5,203.89,196.13Z"/><path class="a" d="M200.18,196.52c-2.21,1.11-3.88-.17-4.2-2.94-.25-2.16-.39-2.55-1.44-3.26,2.21-1.11,3.88.2,4.19,3C199,195.42,199.13,195.82,200.18,196.52Z"/><path class="a" d="M196.47,196.47c-2.33.85-3.83-.63-3.86-3.4,0-2.19-.11-2.58-1.08-3.4,2.33-.86,3.83.62,3.86,3.4C195.39,195.25,195.5,195.65,196.47,196.47Z"/><path class="a" d="M192.72,196c-2.4.56-3.74-1.08-3.43-3.86a8.91,8.91,0,0,0,.09-2.21,4.41,4.41,0,0,0,.62.09,3,3,0,0,0,1.59-.46,4.34,4.34,0,0,1,.48,2.89c-.25,2.16-.2,2.58.65,3.52ZM189,188.56a2.71,2.71,0,0,1,1.68.2,1.74,1.74,0,0,1-.63.11A2.21,2.21,0,0,1,189,188.56Z"/><path class="a" d="M189.15,195.05c-2.38.31-3.54-1.33-3.09-3.88a3.06,3.06,0,0,0,.85.05,2.92,2.92,0,0,0,1.76-.76,3.63,3.63,0,0,0,.34-.34,8.14,8.14,0,0,1-.14,1.33c-.48,2.13-.45,2.55.31,3.57Zm-2.83-5a4.19,4.19,0,0,0,.11-1.5,5.41,5.41,0,0,0,.82.68,2.54,2.54,0,0,0,.77.31l-.09.09a1.81,1.81,0,0,1-1,.48,3.26,3.26,0,0,1-.54,0Zm.54-2.75a2.28,2.28,0,0,1,1.75,1.14,1.43,1.43,0,0,1-.73-.23,4.39,4.39,0,0,1-1-.93Z"/><path class="a" d="M185.75,193.72a2.67,2.67,0,0,1-2.41-.94h.4a2.81,2.81,0,0,0,1.53-.62A2.44,2.44,0,0,0,185.75,193.72Z"/><path class="a" d="M180.34,186.52a2.44,2.44,0,0,0-.48-2.24,2.68,2.68,0,0,1,2.4.76,2.94,2.94,0,0,0-1.21.68,3.68,3.68,0,0,0-.68.83Z"/><path class="a" d="M179.09,190.8a2.35,2.35,0,0,1-2-1.36h.71a6.26,6.26,0,0,1,1.1,1.13l.17.26Zm-2.32-3a4.55,4.55,0,0,1,.11-1.08c.4-2.16.37-2.58-.45-3.6,2.26-.4,3.51,1.08,3.28,3.49h-.25a2.84,2.84,0,0,0-1.73.79c-.14.14-.28.31-.43.48a2.93,2.93,0,0,0-.53-.11Zm2.77,0c0,.39-.11.73-.14,1a1,1,0,0,0-.22-.15,2.05,2.05,0,0,0-.77-.28l.08-.08a1.74,1.74,0,0,1,1-.49Z"/><path class="a" d="M177.13,189.52a3.28,3.28,0,0,1-1.3.09,2.69,2.69,0,0,0-.59-.29.38.38,0,0,1,.11-.08,1.76,1.76,0,0,1,1.1-.37h.2a3.71,3.71,0,0,0,.51.63Zm-2.89-.85a4.28,4.28,0,0,1-.56-3c.25-2.18.19-2.61-.68-3.54,2.43-.6,3.79,1.07,3.48,3.85a11.47,11.47,0,0,0-.11,1.76,3.13,3.13,0,0,0-1.67.59,5,5,0,0,0-.43.37Z"/><path class="a" d="M174.27,188.5c-2.35.88-3.88-.59-3.94-3.43,0-2.21-.11-2.6-1.1-3.46,2.35-.87,3.88.6,3.94,3.43C173.19,187.26,173.28,187.65,174.27,188.5Z"/><path class="a" d="M171.41,187.71c-2.18,1.25-3.94,0-4.42-2.78-.37-2.18-.54-2.55-1.65-3.26,2.18-1.25,3.94,0,4.42,2.78C170.13,186.63,170.3,187,171.41,187.71Z"/><path class="a" d="M168.38,187.43c-2,1.5-3.94.51-4.74-2.22-.65-2.12-.85-2.49-2-3,2-1.5,3.94-.51,4.73,2.21C167,186.52,167.18,186.89,168.38,187.43Z"/><path class="a" d="M155.36,192.84c-.17,2.52-2.21,3.34-4.81,2.18-2.05-.9-2.47-1-3.66-.42.17-2.53,2.21-3.35,4.82-2.19C153.75,193.32,154.17,193.41,155.36,192.84Z"/><path class="a" d="M153.41,195.19c.08,2.21-1,2.78-2.44,2.87a16.14,16.14,0,0,1-3.23-.17c-1.28-.23-2.41-.88-2.84-.74.17-1.93,2.07-2.78,4.8-1.93,2.12.68,2.55.71,3.68,0Z"/><path class="a" d="M198.82,168.8c1.42-2.12,3.57-1.81,5.27.48,1.33,1.79,1.65,2.07,3,2.19-1.42,2.12-3.57,1.81-5.27-.48C200.46,169.2,200.15,168.92,198.82,168.8Z"/><path class="a" d="M195.47,169.23c1.65-2,3.75-1.42,5.19,1.07,1.14,1.93,1.42,2.24,2.72,2.5-1.64,2-3.74,1.42-5.18-1.08C197.06,169.79,196.78,169.48,195.47,169.23Z"/><path class="a" d="M192.13,169.2c.06,0,.08-.09.14-.11a3.16,3.16,0,0,0,2.33-.77,3.91,3.91,0,0,1,2.55,2.58c.88,2.07,1.1,2.41,2.38,2.83-1.87,1.73-3.91.91-5-1.72-.88-2.07-1.11-2.41-2.38-2.84Z"/><path class="a" d="M192.61,169.09a5.16,5.16,0,0,1,1,2c.57,2.15.77,2.52,2,3.12-2.1,1.44-4,.39-4.73-2.38a11.4,11.4,0,0,0-.54-1.73,2.79,2.79,0,0,0,.59-.26,4,4,0,0,0,1.05-.85l.06,0a1.64,1.64,0,0,0,.62.06Z"/><path class="a" d="M189.92,170.19a4.21,4.21,0,0,1,.11.6c.31,2.21.46,2.6,1.56,3.34-2.15,1.14-3.85,0-4.34-2.58a2.55,2.55,0,0,0,.6-.25,3.88,3.88,0,0,0,1.08-.91l.17-.2A3.75,3.75,0,0,0,189.92,170.19Z"/><path class="a" d="M186.55,171.69a2.41,2.41,0,0,0,.93,1.9,2.59,2.59,0,0,1-3-.71,4.45,4.45,0,0,0,1.1-.76l.48-.45h0A3.46,3.46,0,0,0,186.55,171.69Z"/><path class="a" d="M180.28,164.27a2.77,2.77,0,0,1,2.5.73,3.29,3.29,0,0,0-1,.34,4.17,4.17,0,0,0-.88.68,2.47,2.47,0,0,0-.62-1.78Z"/><path class="a" d="M176.62,162.74c2.33-.6,3.69.85,3.6,3.37a2.45,2.45,0,0,0-1.24.25h0a4.21,4.21,0,0,0-1.11.74,3.58,3.58,0,0,0-.54-.14,4.22,4.22,0,0,1,0-.62C177.59,164.1,177.53,163.7,176.62,162.74Z"/><path class="a" d="M172.63,161.89c2.32-1,4,.42,4.16,3.26A11.67,11.67,0,0,0,177,167a3.74,3.74,0,0,0-.93.14,4.18,4.18,0,0,0-1.11.57,1.63,1.63,0,0,0-.23-.11c.09,0,.15-.09.23-.12-.28-.17-.48-.31-.68-.45a7.14,7.14,0,0,1-.34-1.67c-.14-2.24-.25-2.64-1.3-3.46Z"/><path class="a" d="M168.69,161.46c2.18-1.27,4-.08,4.53,2.75.4,2.21.57,2.58,1.7,3.26a2.26,2.26,0,0,1-.22.11,2.83,2.83,0,0,0-1.53-.11,3.17,3.17,0,0,0-.91.31,3.93,3.93,0,0,1-1.87-3c-.4-2.21-.57-2.58-1.7-3.26Z"/><path class="a" d="M164.72,161.66c2-1.56,4-.6,4.85,2.13.68,2.12.9,2.49,2.12,3-2,1.56-4,.6-4.85-2.13C166.16,162.54,165.94,162.17,164.72,161.66Z"/><path class="a" d="M149.36,174.67c-.46-2.49,1.3-3.77,4.11-3.32,2.21.37,2.63.34,3.65-.51.46,2.5-1.3,3.77-4.11,3.32C150.8,173.79,150.38,173.82,149.36,174.67Z"/><path class="a" d="M148.73,179c-1.13-2.27.2-4,3-4.34,2.22-.26,2.61-.4,3.38-1.5,1.13,2.26-.2,4-3,4.33C149.89,177.79,149.5,177.93,148.73,179Z"/><path class="a" d="M150,183.63c-1.9-1.68-1.31-3.77,1.19-5.13,2-1.08,2.27-1.34,2.58-2.64,1.9,1.67,1.3,3.77-1.22,5.13-2,1.08-2.27,1.33-2.58,2.64Z"/><path class="a" d="M151.57,187.09c-1.68-1.19-1.45-3.15.42-4.94,1.62-1.53,1.87-1.87,1.82-3.2,2.26,1.13,2.21,3.32.14,5.27-1.14,1.08-1.59,1.56-1.76,2.24a3.21,3.21,0,0,0-.57.54A.14.14,0,0,0,151.57,187.09Z"/><path class="a" d="M153.41,186a2.63,2.63,0,0,1,.31-.48c1.25-1.84,1.42-2.24,1.08-3.52a2.78,2.78,0,0,1,2.15,1.82h-.42a3.18,3.18,0,0,0-1.76.76,4.32,4.32,0,0,0-.88,1.17l-.11.22c-.12,0-.23,0-.34,0Z"/><path class="a" d="M158.6,193a3.61,3.61,0,0,1-1.34-.23,2.46,2.46,0,0,0,.37-.48,3.26,3.26,0,0,0,.31-.62c.09,0,.17,0,.23,0a2.76,2.76,0,0,0,.43,1.39Z"/><path class="a" d="M162.51,194.6c-2.27.48-3.57-.91-3.49-3.32a3,3,0,0,0,.88-.74c.14-.17.25-.34.37-.51h.4a2.7,2.7,0,0,0,1.3-.42,5.57,5.57,0,0,1-.06,1.39c-.31,2.21-.25,2.63.6,3.63Z"/><path class="a" d="M166.7,195.28c-2.29,1.05-4-.34-4.22-3.18a6,6,0,0,0-.51-2.55,4.85,4.85,0,0,0,.4-.31l.25-.26.34.09a2.81,2.81,0,0,0,1.22-.09,4.47,4.47,0,0,1,1.13,2.87c.2,2.21.32,2.63,1.39,3.4Zm-5.58-6.55,0,0a2.09,2.09,0,0,1,.23-.08A2,2,0,0,0,161.12,188.73Z"/><path class="a" d="M170.81,195.25c-2.09,1.42-4,.34-4.67-2.41-.57-2.15-.74-2.52-1.93-3.12,2.1-1.42,4-.34,4.68,2.41C169.45,194.29,169.62,194.65,170.81,195.25Z"/><path class="a" d="M174.78,194.74c-1.87,1.7-3.88.88-5-1.76-.85-2.07-1.07-2.41-2.32-2.83,1.87-1.7,3.88-.88,5,1.75.85,2.07,1.08,2.41,2.32,2.84Z"/><path class="a" d="M178.64,193.8c-1.68,1.93-3.77,1.34-5.16-1.13-1.08-2-1.36-2.27-2.67-2.52,1.68-1.93,3.77-1.34,5.16,1.13C177.05,193.24,177.33,193.55,178.64,193.8Z"/><path class="a" d="M195.7,187.14c-1.5,2-3.66,1.62-5.21-.76-1.22-1.87-1.54-2.16-2.84-2.33,1.53-2,3.66-1.61,5.22.77C194.09,186.69,194.4,187,195.7,187.14Z"/><path class="a" d="M199.05,186.75c-1.73,1.84-3.8,1.21-5.11-1.31-1-2-1.3-2.29-2.58-2.61,1.73-1.84,3.8-1.22,5.11,1.31C197.49,186.12,197.74,186.43,199.05,186.75Z"/><path class="a" d="M202.45,186.58c-1.87,1.7-3.89.9-5-1.73-.85-2.07-1.11-2.41-2.35-2.84,1.87-1.7,3.88-.91,5,1.73C200.94,185.81,201.2,186.15,202.45,186.58Z"/><path class="a" d="M205.71,187c-2.1,1.42-4,.34-4.68-2.44-.54-2.15-.74-2.52-1.9-3.15,2.1-1.41,4-.34,4.68,2.44C204.35,186,204.54,186.41,205.71,187Z"/><path class="a" d="M206.22,187.85a4.05,4.05,0,0,1-1.59-3c-.31-2.21-.45-2.61-1.56-3.32,2.24-1.16,4,.11,4.37,2.95a6.52,6.52,0,0,0,.62,2.49.46.46,0,0,0-.2,0,2.89,2.89,0,0,0-1.64.88l0,0Z"/><path class="a" d="M208.14,186.52a7.7,7.7,0,0,1,0-1.08c.11-2.21,0-2.63-.91-3.57a2.52,2.52,0,0,1,3.4,1.42,2.87,2.87,0,0,0-.59,1,4.22,4.22,0,0,0-.2.74l-.12,0a2.79,2.79,0,0,0-1.41,1.2A.84.84,0,0,0,208.14,186.52Z"/><path class="a" d="M217.13,193.07a2.56,2.56,0,0,1-2.75-1.7,5.7,5.7,0,0,0,.4-.74l.34-.77a1.54,1.54,0,0,0,.17-.05,2.84,2.84,0,0,0,1.42-1.19,4.8,4.8,0,0,0,.51-1.34l.17-.82.05,0a4.58,4.58,0,0,1-.2,2.92c-.73,2.1-.79,2.53-.14,3.66Z"/><path class="a" d="M219.23,195.62c-2.5-.34-3.18-2.38-1.87-4.93,1-2,1.13-2.39.65-3.6,2.49.34,3.17,2.38,1.87,4.93C218.86,194,218.75,194.4,219.23,195.62Z"/><path class="a" d="M221,198.45c-2.44-.68-2.84-2.8-1.19-5.13,1.27-1.81,1.44-2.21,1.13-3.48,2.44.68,2.83,2.8,1.19,5.13C220.84,196.78,220.67,197.18,221,198.45Z"/><path class="a" d="M222,198.25c-.51.2-.93-.31-.28-1.53,1.08-1.56,1.87-2.52,1.7-3.85,1.5.62,3,2.72,2.81,3.71s-2.78,1.31-4.23,1.65Z"/><path class="b" d="M223.45,212.46l.77,1.84c-3.49-3.74-4.71-7.17-3.63-10.24,2.72.57,5.95,0,9.75-1.72a8.87,8.87,0,0,1,1.73,9.18L231,209v2.61l-1-2.67-.34,3.46-1.73-2.81.74,3.41-1.5-1.62v1.73l-.74-.57v1.19l-2.27-2.41.37,2.1-1.08-.93Z"/><path class="b" d="M151.28,205.14a.64.64,0,0,1-.37-.71c0-.56-.28-.88-.76-.9a8.48,8.48,0,0,0-1.62-.09,25.89,25.89,0,0,1-5.84-1.13,1.29,1.29,0,0,1-.93-1.33,6.91,6.91,0,0,1-1.65,1.75,4.61,4.61,0,0,0-1.33,1.82,9.83,9.83,0,0,0-.14,6.23l1.16-2.24v2.21l1.36-2.38.26,3.15,1.56-2.86-.6,3.4,1.56-1.59v1.79l.94-.91-.32,1.19,2.58-2.07-.34,1.84,1.25-.93-.76,1.67a15.47,15.47,0,0,0,2.72-3.51C151.4,207.1,151.82,205.62,151.28,205.14Z"/><path class="b" d="M229.4,200c.37.85.29,1.42-.28,1.73a15.11,15.11,0,0,1-8.5,1.19c-.48-.11-.74-.34-.77-.65a4.28,4.28,0,0,1-.23-2.55c.12-.49.63-.71,1.51-.77a19.52,19.52,0,0,0,4.19-1c1.25-.48,2.16-.48,2.7,0A5.71,5.71,0,0,1,229.4,200Z"/><path class="a" d="M152.22,199.87a3.9,3.9,0,0,1-.17,1.73,2.82,2.82,0,0,1-2.64,1.13,25.89,25.89,0,0,1-5.84-1.13,1.29,1.29,0,0,1-.93-1.33,5.06,5.06,0,0,1,1.07-1.93,1.46,1.46,0,0,1,1.88-.43,9.69,9.69,0,0,0,4.56.68c1.19-.11,1.9.32,2.1,1.25Z"/><path class="a" d="M219.31,179.6c.49,2.38-1.19,3.66-3.88,3.23-2.13-.31-2.52-.28-3.49.54-.48-2.38,1.19-3.65,3.89-3.23C218,180.45,218.35,180.42,219.31,179.6Z"/><path class="a" d="M218.38,183.57c0,2.44-1.93,3.32-4.51,2.35-2-.76-2.41-.82-3.51-.22,0-2.44,1.92-3.32,4.5-2.36,2,.77,2.41.83,3.52.2Z"/><path class="a" d="M214.24,190.4c-1,2.24-3.09,2.33-5.07.43-1.56-1.48-1.9-1.7-3.18-1.56,1-2.24,3.09-2.33,5.07-.43C212.62,190.32,213,190.54,214.24,190.4Z"/><path class="a" d="M216.65,187.2c-.51,2.38-2.55,2.89-4.88,1.42-1.81-1.14-2.21-1.28-3.43-.91.51-2.38,2.55-2.89,4.88-1.42C215,187.43,215.43,187.57,216.65,187.2Z"/><path class="a" d="M182.35,192.36c-1.39,2.12-3.54,1.81-5.24-.48-1.34-1.79-1.65-2.07-3-2.19,1.39-2.12,3.54-1.81,5.24.49C180.71,192,181,192.24,182.35,192.36Z"/><path class="a" d="M185.84,190.54c-1.17,2.27-3.32,2.21-5.28.12-1.53-1.65-1.87-1.87-3.17-1.82,1.16-2.26,3.32-2.21,5.27-.11,1.53,1.64,1.87,1.87,3.2,1.81Z"/><path class="a" d="M189.07,189c-1.19,2.24-3.38,2.13-5.27,0-1.48-1.67-1.82-1.9-3.15-1.9,1.19-2.24,3.37-2.12,5.27,0C187.4,188.81,187.74,189,189.07,189Z"/><path class="a" d="M192.33,188c-1.39,2.13-3.55,1.85-5.25-.42-1.33-1.79-1.67-2-3-2.16,1.39-2.12,3.54-1.84,5.24.43C190.68,187.62,191,187.88,192.33,188Z"/><path class="a" d="M152.13,187.43c-2.26-1.14-2.21-3.32-.14-5.28,1.62-1.53,1.87-1.87,1.82-3.2,2.26,1.13,2.21,3.32.14,5.27C152.33,185.75,152.08,186.09,152.13,187.43Z"/><path class="a" d="M165.54,187.4c-1.67,1.9-3.74,1.3-5.1-1.16-1.08-1.93-1.36-2.24-2.64-2.53,1.67-1.9,3.74-1.3,5.1,1.16C164,186.8,164.27,187.11,165.54,187.4Z"/><path class="a" d="M162.76,187.82c-1.19,2.21-3.34,2.13-5.24,0-1.48-1.64-1.82-1.9-3.15-1.87,1.19-2.21,3.35-2.13,5.25,0C161.09,187.6,161.43,187.85,162.76,187.82Z"/><path class="a" d="M160,189.07c-.85,2.38-3,2.61-5.19.82-1.72-1.42-2.09-1.59-3.4-1.39.85-2.38,3-2.6,5.19-.82C158.37,189.1,158.74,189.27,160,189.07Z"/><path class="a" d="M157.58,190.77c-.51,2.5-2.61,3-5.05,1.56-1.9-1.16-2.3-1.3-3.57-.88.51-2.49,2.61-3,5-1.56C155.9,191.05,156.3,191.17,157.58,190.77Z"/><path class="a" d="M160.67,162.74c1.64-1.93,3.74-1.39,5.15,1.1,1.11,2,1.39,2.24,2.7,2.52-1.65,1.93-3.74,1.39-5.16-1.1C162.25,163.3,162,163,160.67,162.74Z"/><path class="a" d="M156.92,164.49c1.28-2.18,3.46-2,5.28.17,1.41,1.73,1.75,2,3.09,2-1.28,2.18-3.46,2-5.28-.17C158.6,164.78,158.26,164.52,156.92,164.49Z"/><path class="a" d="M153.61,167.41c.65-2.46,2.78-2.86,5.13-1.24,1.84,1.27,2.24,1.41,3.51,1.1-.65,2.47-2.78,2.86-5.13,1.25C155.28,167.24,154.88,167.1,153.61,167.41Z"/><path class="a" d="M151.08,170.81c.09-2.55,2.07-3.42,4.74-2.35,2.07.82,2.49.91,3.65.29-.08,2.55-2.06,3.4-4.73,2.35C152.67,170.28,152.25,170.19,151.08,170.81Z"/><path class="a" d="M172.17,168.46c2-1.22,3.72-.08,4.23,2.53.39,2,.54,2.4,1.61,3-2,1.22-3.71.08-4.22-2.52C173.39,169.45,173.25,169.09,172.17,168.46Z"/><path class="a" d="M187.48,163.56c1.7-1.67,3.63-1,4.76,1.44.88,1.9,1.11,2.22,2.33,2.58-1.7,1.68-3.63,1-4.77-1.44C188.93,164.24,188.7,163.93,187.48,163.56Z"/><path class="a" d="M175.18,168.24c1.87-1.45,3.68-.57,4.51,2,.65,2,.85,2.32,2,2.81-1.87,1.44-3.69.56-4.51-2C176.51,169.06,176.31,168.72,175.18,168.24Z"/><path class="a" d="M178.21,167.58c1.73-1.64,3.63-.9,4.71,1.53.85,1.9,1.07,2.24,2.26,2.61-1.72,1.65-3.62.91-4.7-1.53C179.63,168.26,179.4,168,178.21,167.58Z"/><path class="a" d="M181.13,166.62c1.56-1.81,3.52-1.28,4.85,1,1,1.81,1.3,2.12,2.49,2.38-1.56,1.81-3.51,1.28-4.84-1.05C182.6,167.19,182.32,166.87,181.13,166.62Z"/><path class="a" d="M184.19,165.09c1.59-1.79,3.55-1.25,4.85,1.1,1,1.85,1.28,2.13,2.49,2.41-1.58,1.79-3.54,1.25-4.84-1.1C185.67,165.66,185.41,165.37,184.19,165.09Z"/><path class="a" d="M209.28,164.75c.88-2.38,3.06-2.58,5.24-.74,1.7,1.45,2.07,1.65,3.4,1.45-.87,2.38-3.06,2.58-5.24.73C211,164.75,210.61,164.55,209.28,164.75Z"/><path class="a" d="M205.91,166.36c1.07-2.32,3.23-2.35,5.27-.34,1.59,1.56,1.95,1.79,3.29,1.71-1.08,2.32-3.24,2.35-5.28.34C207.61,166.51,207.24,166.28,205.91,166.36Z"/><path class="a" d="M202.39,167.87c1.16-2.27,3.32-2.24,5.3-.14,1.53,1.61,1.87,1.87,3.2,1.81-1.16,2.27-3.31,2.24-5.3.14C204.06,168.07,203.72,167.81,202.39,167.87Z"/><path class="b" d="M36.59,90.34a256.61,256.61,0,0,1,1.08,42.15q1.88,9.52,9.58,7.68a14.8,14.8,0,0,1-6.55-4.87,20.62,20.62,0,0,1,2-11.14,9.3,9.3,0,0,1,7.68-5.67l6.69-.77c5.75-.59,9.41-3,11-7.14a15.27,15.27,0,0,1-1.42,9.58q-2.51,3.75-9,4.31l-9.13.74c-2.63.17-4.45,1.16-5.44,2.94q1.57,6.21,11.57,7.09c6.66.6,11.7-1.93,15.13-7.51a12.27,12.27,0,0,1-3,10.43,22.9,22.9,0,0,1-10.57,6.92c1.21,3.6,4.22,4.84,9,3.68,4.87-1.67,7.45-4.19,7.79-7.59l-1.19-38.1,3.55-6.21q24.36,9.23,15.56,38.07.33-28.18-15.82-30.42l.6,37.93a14,14,0,0,1-7.35,12.93,13,13,0,0,1-7.25,1.44c-4.51-.88-6.81-4.65-6.95-11.31q-10.55,3.15-17.15-2.61a5.14,5.14,0,0,0,1.19,4.2,11.33,11.33,0,0,0,5.9,3.32,23.38,23.38,0,0,1,3.94,1.44q5.06,2.25,1.73,9.13c-4.37-3.46-8.59-4.51-12.7-3.12a18.23,18.23,0,0,0-4,2.18c-3.14,2.1-6.18,2.81-9.1,2.1-2.72-.88-4.79-4.17-6.23-9.81a109.31,109.31,0,0,1-.48-21q1.35-30.2-4.17-38.81l4.76-6a109.93,109.93,0,0,1,4.28,29.79l-.34,21c-.82,10.85.91,16.58,5.13,17.2a7.93,7.93,0,0,0,6.47-2c1.81-1.62,3.68-2.13,5.61-1.5a11.74,11.74,0,0,1-4.31-5.3c-1.08-3.57-1.42-8.22-1.08-14a159.48,159.48,0,0,0-2-35.15l4.93-6.27Z"/><path class="b" d="M.6,153.61c2.6-4.14,4.76-6.38,6.4-6.69a1.39,1.39,0,0,1,.31-.06c2.24-.54,4.82-.08,7.68,1.33a17.51,17.51,0,0,1-4,4.14c-2.81-1.61-5.36-1.67-7.69-.17a3.43,3.43,0,0,0,2.92,4.14,21.69,21.69,0,0,0,11-1.64l-1.47,5.47A22.43,22.43,0,0,0,1.19,166a10.41,10.41,0,0,1-.4-2.52,16.11,16.11,0,0,1,3.29-2.63,8,8,0,0,1-4-4.82,3.52,3.52,0,0,1,.49-2.47Z"/><path class="a" d="M343.58,132c6.15,4.05,8.28,8.78,6.35,14.26-3.94,6.4-8.73,8.7-14.31,7-1.11,5.3.88,8,6,8.28a28.41,28.41,0,0,0,15.28-5.93,44.26,44.26,0,0,0-2.33-14.82l-2.15-1.28a40.91,40.91,0,0,1,5.64-7.85,87.37,87.37,0,0,1,5.5,16.13c-1-1-2.07-1.93-3.18-2.84a18.67,18.67,0,0,1-1,11.43,26.09,26.09,0,0,1-12.27,11.42c-6.67,3.15-11.34,2.32-14.06-2.41-2.05-3.49-1.79-7.77.68-12.81a66.64,66.64,0,0,0-13.64-4.2c-10.86,5.67-18.71,7.32-23.47,5-3.09-2.47-3.57-6.52-1.47-12.1a40.53,40.53,0,0,1-16.3,3.37c-7.63,0-13-1.3-16.13-4l-7.4,5.61.54-3.37,4.7-4.08a14.16,14.16,0,0,1-3.71-9.33q-43.2,10.89-82.32,10.35-32.87-.46-54.56-11.68c-6.75-4.05-11.08-4.93-13-2.61S103,133,101.11,140.94c-1.84,5.3-4.88,8.11-9.13,8.39q-9.48-1.16-9.52-26.45c3,13.15,6.32,19.48,10,18.91,2.75-.8,4.59-4,5.55-9.64a51,51,0,0,1,1.84-8.3q5.07-12.16,14.38-5.19a48,48,0,0,0,11.33,6.91q22.08,8.13,54.94,8.71,39.12.72,82.32-13c-.85,4.42.45,8.48,3.94,12.19L279,122.85q17.43-12.63,27.27-3,4.85,5.15-1.79,14.46a23.52,23.52,0,0,1-6.54,5.67q-3.24,12.36,13.43,5.89c-5.58-2.41-6.43-6.52-2.49-12.33,4.31-6.38,9.61-10.63,15.84-12.75l-.59-2.19c-.26,0-.54-.08-.82-.11a64.62,64.62,0,0,1,4.84-9l12.25,14.4a61.75,61.75,0,0,0-9-3.63,53.87,53.87,0,0,0,12.16,11.82Zm-68.71,5c-1.61-.49-3.29-1.05-5.1-1.68q10.38-9.39,21.63-11.76c5-1.1,8.33,0,9.83,3.23,1,3.6-.17,6.35-3.57,8.28q-11.66,4.72-21.29,2.35A12.29,12.29,0,0,1,274.87,137Zm41.67-8.22a10.42,10.42,0,0,0-4.2,8c1,1.79,3.63,3.26,7.94,4.42,7.09-4.28,9.87-9.18,8.39-14.74a16,16,0,0,0-12.1,2.33Zm27.07,14.4c-1.64-3.29-4.9-7.26-9.84-11.91a22.12,22.12,0,0,1-6.69,12.1,51.27,51.27,0,0,0,13,4.28C343.33,147.63,344.49,146.15,343.61,143.21Z"/><polygon class="b" points="284.48 105.22 290.01 110.75 284.48 116.25 278.95 110.75 284.48 105.22"/><polygon class="b" points="351.75 117.44 357.27 122.97 351.75 128.47 346.25 122.97 351.75 117.44"/><polygon class="b" points="112.67 111.52 107.72 106.56 102.73 111.52 97.23 105.99 102.73 100.49 107.72 105.45 112.67 100.49 118.17 105.99 112.67 111.52"/><path class="b" d="M23.24,88.81c1.9,2.44,2.7,5.7,2.44,9.78q3.57-6.81.17-12.87A9.92,9.92,0,0,0,23.24,88.81Z"/><path class="b" d="M321.53,111.66l6.6-4.34A65.34,65.34,0,0,0,334,96.12a25.86,25.86,0,0,0-15,2.67l-2.52,7.51a11,11,0,0,1,9.1-3.77c1.92.59,2.43,1.53,1.53,2.75a56.24,56.24,0,0,1-11.31,6.38Z"/><path class="b" d="M304.12,97.68l-2.26,3c-3.29,4.28-4.31,7.51-3.06,9.64,1.36,2.32,3.17,3.14,5.41,2.52a4.79,4.79,0,0,0,3.51-4.88c-2.8,1.48-4.81,1.51-6.09.12s-.34-4.4,2.83-9l-.36-1.45Z"/><path class="b" d="M271.72,111.77v-1.5a42.79,42.79,0,0,0-3.06,6.46c-.59,1.73-.65,3.06-.11,4s1.56,1,3.12.48a3.1,3.1,0,0,0,2.18-3.32,3.23,3.23,0,0,1-2.1,1c-1,0-1.56-.31-1.81-1-.4-1.5.17-3.57,1.76-6.18Z"/><path class="b" d="M296.44,99.21l4.45-3.8L271,103.07a87.87,87.87,0,0,0-13.1,4.65,26.28,26.28,0,0,0-3.74,4.28A117,117,0,0,1,277,104l19.44-4.77Z"/><path class="b" d="M365,90.94q-6.93-1.5-8.33,6.49c-.71,4.87-1.81,7.54-3.26,8-1.56-6.91-4.31-10.66-8.25-11.14-1.67-.11-2.69.37-3.06,1.48-1.13,2.6-1.47,4.73-1,6.37,1.05,1.17,2.75,1.53,5.07,1.11,2.72-.11,4.2.23,4.43,1.08.93,1.36-.69,4-4.82,8q7.31.34,11.14-6.72c.76-1.41,1.41-2.8,2-4.22,1.33-3.12,3-3.85,5.13-2.15a41.53,41.53,0,0,0,.91-8.25Z"/><path class="b" d="M362.66,81.41q-23.39,4.52-47.14,11.06L309.91,98a499.47,499.47,0,0,1,49.15-13Z"/><path class="b" d="M3.66,96.92a4.34,4.34,0,0,0-.23,3.57,2,2,0,0,0,2.81,1c1.41-.57,2.49-2,3.2-4.14a4.8,4.8,0,0,1-3.2.6c-1.08-.49-1.31-1.53-.68-3.21l1.36-3V89.92l-3.24,7Z"/><path class="b" d="M2.83,121.8a130,130,0,0,1,23.11-7.9l17.51-4.82,2.92-3-20.92,6A133.1,133.1,0,0,0,6,118.63Z"/><path class="b" d="M10.63,129.15a7.22,7.22,0,0,0-2.49,2.35,5,5,0,0,0-1,3.74C7.51,137,8.48,137.88,10,138c1,0,1.56-.31,1.61-1a5.36,5.36,0,0,0-4-2.1,4.75,4.75,0,0,1,.65-2,5.21,5.21,0,0,1,4.74,2.27c.22,1.11-.32,2.18-1.65,3.23a5.18,5.18,0,0,1-3.94,1,2.57,2.57,0,0,1-2.24-2.21,7.52,7.52,0,0,1,.2-2.27,8.93,8.93,0,0,1,1.56-3.4,7.34,7.34,0,0,1,3.74-2.64Z"/><path class="b" d="M2.83,114.15A119.63,119.63,0,0,1,25.94,106l17.51-4.82,2.92-3-20.92,6A133.1,133.1,0,0,0,6,110.75l-3.12,3.43Z"/><path class="a" d="M58.39,96.58a22.79,22.79,0,0,0-3.51,5.07,5.25,5.25,0,0,0,0,4.42l.65,1.56q-13.9,11.7-27.92,13.66Q37.35,125,56,108.79a4.65,4.65,0,0,1,0,4.71l2-2a3,3,0,0,0,.63-1.39,6.42,6.42,0,0,0-.37-3.79,15.37,15.37,0,0,0,3.82-5q1.5-3.66,0-5.36c-1.07-1-2.32-.85-3.71.51Zm.54,2c-.71,0-1.36.6-1.9,1.73a3.28,3.28,0,0,0-.51,2.84l1.19,2.24,1.85-2A3.55,3.55,0,0,0,60.69,100c-.23-1.08-.82-1.59-1.76-1.51Z"/><polygon class="a" points="186.23 -0.06 192.3 18.74 212.06 18.71 196.07 30.27 202.19 49.04 186.23 37.42 170.3 49.04 176.43 30.27 160.44 18.71 180.17 18.74 186.23 -0.06"/><polygon class="a" points="139.29 32.17 142.47 41.98 152.76 41.95 144.42 47.99 147.6 57.77 139.29 51.7 130.99 57.77 134.19 47.99 125.83 41.95 136.15 41.98 139.29 32.17"/><polygon class="a" points="230.74 32.17 233.91 41.98 244.2 41.95 235.87 47.99 239.07 57.77 230.74 51.7 222.43 57.77 225.63 47.99 217.3 41.95 227.59 41.98 230.74 32.17"/><polygon class="a" points="256.02 60.35 259.17 70.16 269.49 70.13 261.12 76.17 264.33 85.95 256.02 79.88 247.72 85.95 250.89 76.17 242.56 70.13 252.85 70.16 256.02 60.35"/><polygon class="a" points="112.87 60.35 116.05 70.16 126.34 70.13 118 76.17 121.21 85.95 112.87 79.88 104.57 85.95 107.77 76.17 99.44 70.13 109.73 70.16 112.87 60.35"/><polygon class="a" points="119.31 149.73 122.48 159.53 132.77 159.5 124.44 165.54 127.61 175.32 119.31 169.26 111 175.32 114.21 165.54 105.84 159.5 116.16 159.53 119.31 149.73"/><polygon class="a" points="248.08 149.13 251.26 158.94 261.55 158.91 253.22 164.95 256.42 174.73 248.08 168.66 239.78 174.73 242.98 164.95 234.65 158.91 244.94 158.94 248.08 149.13"/><polygon class="a" points="158.2 210.81 164.78 218.72 174.33 214.84 168.86 223.57 175.49 231.42 165.51 228.92 160.07 237.66 159.36 227.39 149.38 224.93 158.94 221.07 158.2 210.81"/><polygon class="a" points="211.69 210.81 205.08 218.72 195.53 214.84 201 223.57 194.37 231.42 204.38 228.92 209.79 237.66 210.5 227.39 220.47 224.93 210.95 221.07 211.69 210.81"/><path class="a" d="M82.2,185.13v2.15c2,0,3.49,1,3.49,1.93v20.5c0,.9-1.16,1.87-3.46,1.92v2.16c2.07-.09,3.94-.12,4.68-.12s2.72,0,5.92.12v-2.16a6.63,6.63,0,0,1-2.66-.37c-.37-.22-.54-1.1-.54-1.58V189.81l14.31,24,3.77,0,0-24.64c0-.9,1.16-1.87,3.45-1.92V185.1c-2,.09-3.91.11-4.67.11s-2.75,0-6-.11v2.16a6.86,6.86,0,0,1,2.66.36c.37.23.54,1.11.54,1.59l0,15.34L91.39,185.13H82.2Z"/><path class="a" d="M273.77,214.18a15.89,15.89,0,0,1-9.81-3c-2.13-1.67-3.72-3.66-3.72-11.91v-10a2.35,2.35,0,0,0-.53-1.59,7.47,7.47,0,0,0-2.67-.37v-2.15c3.2.08,5.42.11,6.58.11s3.29,0,5.3-.11v2.15a6.4,6.4,0,0,0-2.55.4c-.43.23-.63,1.08-.63,1.53v13.86c0,5.47,3.21,7.88,8.31,7.88a5.21,5.21,0,0,0,4.31-2.32,8.68,8.68,0,0,0,1.42-5.33V189.21a2.31,2.31,0,0,0-.54-1.59,7.52,7.52,0,0,0-2.67-.36V185.1c3.21.09,5.19.11,6,.11s2.67,0,4.68-.11v2.16a6.45,6.45,0,0,0-2.55.39c-.43.23-.62,1.08-.62,1.53v14.06a10.72,10.72,0,0,1-10.35,10.89Z"/><path class="b" d="M192.27,71.8l-.14,0-.23,0-.31-.06-.2,0-.31-.06-.28,0-.26,0c-.11,0-.22,0-.31-.06l-.17,0c-.14,0-.28,0-.43,0h-.08l-.2,0c.26,1.1.51,2.21.74,3.31a35.54,35.54,0,0,0,5.07-2.26c-.76-.2-1.5-.37-2.29-.51l-.15,0-.31-.06-.17,0Zm7.65,2.1c1.25,1.87,2.39,3.8,3.46,5.78a38.1,38.1,0,0,0,3.26-2.55,42.31,42.31,0,0,0-6.72-3.2Zm4.54,7.85a70.14,70.14,0,0,1,4,9.87,73.67,73.67,0,0,1,2.9,12.36A87.05,87.05,0,0,0,225,98.5a43.57,43.57,0,0,0-16.3-20.09A39.66,39.66,0,0,1,204.46,81.75Zm1.84,10.57A71,71,0,0,0,202.5,83,43.76,43.76,0,0,1,196,86.26c-1.19.48-2.38.88-3.63,1.25.29,1.95.54,3.88.8,5.84q.81,7,1.16,14.11a89.76,89.76,0,0,0,11.45-2c1.11-.26,2.21-.54,3.29-.85a71,71,0,0,0-2.84-12.31ZM201.46,81a74.46,74.46,0,0,0-4.29-7,40.44,40.44,0,0,1-6.57,3c.57,2.72,1.05,5.47,1.5,8.22,1.05-.31,2.1-.68,3.12-1.08A40.48,40.48,0,0,0,201.46,81Zm10.23,25.31a74,74,0,0,1-.26,18.37,89.18,89.18,0,0,0,16.53-7c0-.12,0-.23,0-.34,0-.91.08-1.82.08-2.72V114h0v-.57c0-.37,0-.73,0-1.07v0c0-.17,0-.34,0-.51v-.06c0-.17,0-.34,0-.48v-.09c0-.17,0-.31,0-.48v-.08c0-.15,0-.32,0-.46v-.11c0-.14,0-.28-.06-.43v-.11c0-.14,0-.28-.05-.42l0-.15c0-.11,0-.25-.06-.36l0-.17c0-.12,0-.26,0-.37l0-.2c0-.11,0-.23-.06-.34l0-.2c0-.11,0-.2-.05-.31l0-.12,0-.11-.06-.28-.05-.34,0-.12-.09-.42,0-.17a2,2,0,0,0-.12-.45h0a40.77,40.77,0,0,0-1.22-4.28,93.18,93.18,0,0,1-14.11,5.61Zm-1.87,8.19a71.49,71.49,0,0,0-.4-7.51c-1,.28-2,.54-3,.8a97.62,97.62,0,0,1-11.88,2.06c.09,2.5.14,5,.14,7.52,0,3.62-.08,7.25-.28,10.85a90.35,90.35,0,0,0,12.9-2.35l1.73-.45a73.85,73.85,0,0,0,.82-10.89Zm1.22,12.7a74.5,74.5,0,0,1-2.58,10.32c-.49,1.47-1,2.92-1.59,4.34a89.93,89.93,0,0,0,15.31-5.39,43.21,43.21,0,0,0,5.5-16A91.88,91.88,0,0,1,211,127.16Zm-4.79,9.58a67.09,67.09,0,0,0,2.29-8.9c-.23.06-.48.12-.71.2a95.48,95.48,0,0,1-13.63,2.47c-.17,2.63-.4,5.24-.65,7.85-.2,1.95-.43,3.91-.68,5.84A90.37,90.37,0,0,0,204,142.47l.11,0c.79-1.87,1.53-3.77,2.15-5.73Zm-.51,7.71a74.6,74.6,0,0,1-6,10.83,43.3,43.3,0,0,0,15.59-10c1-1,1.92-2,2.8-3.09l0,0c.11-.12.2-.26.31-.37l.06-.06a3.84,3.84,0,0,1,.28-.34l.06-.08c.08-.12.17-.2.25-.32l.09-.11c.08-.11.14-.2.23-.31l.08-.11.2-.29.11-.17.06-.08A91.39,91.39,0,0,1,205.74,144.45Zm-9.64,12a70.83,70.83,0,0,0,6.8-11.39,88.94,88.94,0,0,1-10.37,1.47q-.81,5.58-1.93,11a40.31,40.31,0,0,0,5.5-1.13Zm-5.95-9.72c-1.88.11-3.75.17-5.65.17s-3.79-.06-5.66-.17c.56,3.74,1.21,7.43,1.95,11.11,1.25.12,2.52.17,3.8.17s2.38-.05,3.57-.14c.77-3.68,1.42-7.37,2-11.11Zm-5.65-2.15c2,0,4-.06,6-.2.28-2.07.53-4.17.76-6.27.26-2.46.45-4.93.62-7.42-2.43.2-4.87.28-7.37.28s-4.93-.08-7.37-.28c.17,2.49.37,5,.63,7.4.22,2.09.48,4.19.76,6.26,2,.14,4,.2,6,.2Zm-8,2c-3.17-.28-6.32-.71-9.41-1.27a55.11,55.11,0,0,0,9.75,12l1.56.26c-.74-3.63-1.36-7.29-1.9-11Zm-10.88-4a85.46,85.46,0,0,0,10.57,1.59c-.25-2-.48-3.88-.71-5.84-.28-2.61-.48-5.22-.65-7.85a95.88,95.88,0,0,1-13.46-2.41l-.94-.26A55.42,55.42,0,0,0,164,139.24C164.49,140.37,165,141.51,165.6,142.58Zm-1.53,2a91,91,0,0,1-14.6-4.59,46.11,46.11,0,0,0,4.45,5.22,43.46,43.46,0,0,0,18.65,11A56.79,56.79,0,0,1,164.07,144.62Zm-16.9-8.08a86.61,86.61,0,0,0,15.51,5.36c-.29-.56-.54-1.16-.8-1.76a56.75,56.75,0,0,1-3.94-13.06,91.4,91.4,0,0,1-16.29-6.61,42.93,42.93,0,0,0,5.58,16.05Zm10.35-12a58.44,58.44,0,0,1,.57-18.11,92.88,92.88,0,0,1-14.66-5.73,43.82,43.82,0,0,0-2.24,13.81c0,.91,0,1.78.09,2.69,0,.17,0,.34,0,.51a91.36,91.36,0,0,0,16.22,6.86Zm1.87-7.31a54.37,54.37,0,0,0,.59,8l1.93.51a91.11,91.11,0,0,0,12.76,2.33c-.2-3.6-.29-7.23-.29-10.86,0-2.52.06-5,.15-7.51a91.27,91.27,0,0,1-11.77-2c-.82-.2-1.61-.4-2.43-.63a54,54,0,0,0-.94,10.15Zm-.82-13.07a56.29,56.29,0,0,1,5.64-14.54c.59-1,1.19-2.07,1.84-3.09a43.27,43.27,0,0,1-9.64-5.07,30.38,30.38,0,0,0-2.49,2.32,43.62,43.62,0,0,0-9.7,14.74A89.48,89.48,0,0,0,158.57,104.2Zm7.65-13.41a54.43,54.43,0,0,0-5.41,14c.82.22,1.64.42,2.49.62a91.62,91.62,0,0,0,11.34,2q.35-7.09,1.16-14.08c.17-1.48.37-2.92.57-4.37a41.75,41.75,0,0,1-8.05-1.61C167.58,88.47,166.87,89.6,166.22,90.79Zm1.16-6.2a58.67,58.67,0,0,1,4.71-5.84c-.62-.09-1.25-.2-1.87-.31a40.54,40.54,0,0,1-6.64-1.9A43.81,43.81,0,0,0,158.31,80a39.74,39.74,0,0,0,9.1,4.62Zm6.72-7.94A52.86,52.86,0,0,1,179.49,72l.14-.62a43.34,43.34,0,0,0-13.24,3.71,37.81,37.81,0,0,0,4.22,1.08c1.14.22,2.3.39,3.49.51Zm10.77-5.58c-1.13.7-2.24,1.47-3.31,2.26-.26,1.11-.49,2.21-.71,3.35a35.71,35.71,0,0,0,7.08-1.31c-.31-1.41-.62-2.83-1-4.22-.71,0-1.39-.06-2.1-.06Zm-6.18,4.53c-.48.4-.93.79-1.39,1.22h1.14c.08-.4.17-.79.25-1.19ZM175,79.06a55.5,55.5,0,0,0-5.3,6.26,37.82,37.82,0,0,0,7,1.34c.4-2.53.82-5,1.3-7.52h-.34C176.74,79.14,175.86,79.12,175,79.06ZM180.2,69h0l.39,0c1.33-.11,2.67-.17,4-.17.59,0,1.19,0,1.76,0v0l1,.08a45.3,45.3,0,0,1,10.49,1.88h0l.09,0a46.19,46.19,0,0,1,11.79,5.56l.65.42h0A46.18,46.18,0,0,1,227.08,97.4h0l.31.82a45.1,45.1,0,0,1,2.64,10.69l0,.2c0,.11,0,.22,0,.36l0,.23,0,.31,0,.34,0,.2c0,.14,0,.28,0,.43v.08c0,.17,0,.34,0,.48v.09c0,.17,0,.34,0,.51v0c0,.17,0,.37,0,.54v.05a3.63,3.63,0,0,0,0,.57h0c0,.4,0,.79,0,1.19V115c0,1.34-.09,2.64-.2,3.94V119h0a45.74,45.74,0,0,1-40,41h0l-.23,0a43.93,43.93,0,0,1-4.76.28h-1.34c-1.58,0-3.14-.14-4.7-.31l-.2,0h0a45.77,45.77,0,0,1-39.83-40.79h0v-.06c-.14-1.36-.19-2.72-.22-4.11v-1h0v-.59a3.63,3.63,0,0,1,0-.57v0c0-.17,0-.34,0-.53v-.09c0-.17,0-.31,0-.48v-.14c0-.14,0-.29,0-.43v-.17c0-.14,0-.25,0-.4l0-.28,0-.23c0-.11,0-.22,0-.36l0-.23a45.84,45.84,0,0,1,2.7-11.2l.28-.76h0a45.77,45.77,0,0,1,10.12-15.34c.71-.71,1.47-1.42,2.21-2.07h0l.59-.48a45.41,45.41,0,0,1,25.12-10.6Zm.17,10.09c-.51,2.58-.94,5.16-1.34,7.77.54,0,1.05,0,1.59,0a39.55,39.55,0,0,0,9.24-1.07c-.42-2.72-.91-5.45-1.47-8.11a39.42,39.42,0,0,1-8,1.42Zm-1.68,10.06c-.2,1.48-.39,3-.56,4.48-.54,4.62-.94,9.33-1.17,14,2.5.2,5,.31,7.6.31s5.07-.11,7.57-.31q-.34-7.09-1.16-14.06c-.23-1.84-.46-3.68-.74-5.53a41.1,41.1,0,0,1-9.61,1.11c-.65,0-1.3,0-1.93-.06ZM176.85,110c-.08,2.41-.14,4.84-.14,7.28,0,3.71.11,7.43.31,11.08,2.47.2,5,.32,7.51.32s5-.12,7.51-.32c.2-3.65.32-7.37.32-11.08,0-2.44-.06-4.87-.15-7.28-2.52.19-5.1.31-7.68.31s-5.16-.12-7.71-.31Zm50.66-2.7-.06-.31Zm2.91,7.71c0,.49,0,1,0,1.51Z"/><path class="a" d="M184.59,68.8a45.78,45.78,0,1,1-45.78,45.78A45.78,45.78,0,0,1,184.59,68.8Zm-.06,57.06-.14,0-.17.11-.17.06H184l-.05,0v0l0,.06,0,.06v.14l0,.09.06,0,0,.06.12-.06.14,0,.23.06.28,0,.28.06.23.08h.11l.06,0h.06l.17,0,.11-.11H186l.05,0,0,.06.11,0h.12l.31-.14.11,0h.34l.12-.06.11,0,.17,0,.06,0,0,0-.06-.09.11-.08,0,0,0,0,.06,0,0-.2-.09,0-.08,0-.06,0,0,0,.2,0-.08.09-.12,0-.17.06-.05,0-.06.06,0,0,0,.06,0,0-.14,0h-.08l-.23-.15-.06,0,0,0-.06,0h-.06l-.14,0h-.08l-.09,0-.08.06h-.12l-.08,0-.12-.08-.19-.06-.15-.06-.14,0H185l0,0-.12-.09-.08,0h-.09l-.08,0h-.09Zm30.79-42a43.35,43.35,0,0,0-13.72-9.27h0l.08,0-.22.11-.2.17-.09.12-.08.11-.06.11,0,.14-.06-.05-.19-.23-.12-.06-.2,0h-.05l-.43.19,0,.15-.12.22-.05.09-.06,0,0,0-.06.2-.14.12h-.08l-.14,0-.06,0,.08-.17-.11,0H199v-.12l-.09,0,.06-.09v-.08l0,0v-.11l-.09,0-.05,0v-.14h-.06l-.11,0-.23.11h-.06l.09-.09.2-.08.08-.06.2-.17.11-.08.06-.14,0-.09.05-.08,0-.12.06,0,.11-.08h.06l.08.11.09.09h.08l.12-.06h.2l.14-.06,0,0,0-.09,0-.14h0l-.45-.17-.09,0-.08,0-.14,0-.29.11h-.14L199,74l-.14-.08-.14,0-.09.14-.05.25-.06.12,0,.14-.06,0-.39-.25h0l-.31,0-.09,0-.11.06-.12,0-.08,0-.09-.06-.08,0-.09,0,0-.37,0-.06.06-.06.06,0,.14,0,.14,0,.11,0,.09-.09.11-.11.12-.08.14-.06.14-.09.09-.08c-1-.34-2-.62-3-.88l-.08.17-.14.2-.17.08-.12,0h-.22l-.17,0-.17,0L194,73l-.06.09,0,.11v.08h-.06l-.14,0h-.14l-.06,0,0-.11h-.09l-.11,0-.2,0-.06,0,0,.06,0,0,.09.09,0,.08-.11,0-.09-.11-.06-.09h0l-.09,0,0,.11,0,.09.06.08-.09.09,0,.06-.06,0-.17-.11,0-.09.08-.08v-.09l0,0-.25.2-.17.22-.09,0,0,0-.06,0-.17.14,0,.11h-.06l0,0v-.12l0-.08-.17-.14-.09-.12.06,0,.14,0h.11l0-.06,0,0,.08,0,.06,0-.06,0-.08,0-.06,0,0-.14-.08-.15-.06-.14.09-.08,0-.14.09-.2,0-.06.11-.06,0,0-.06,0-.08,0v-.06l0,0,.09-.06.14-.09.06-.14,0,0-.09,0,0-.06a41.05,41.05,0,0,0-6.89-.62l0,0,0,0h-.09l-.05,0,0,.09v.23l-.06,0-.14,0-.14.09-.06,0,0,0,0-.11,0-.06h-.05l-.12,0-.08.05,0,.06.11.14h.12l0,0-.08.06-.2.11,0,.09L184,72l-.09.06-.06,0,0,0-.12,0-.14.17-.08.14-.12.09-.08.25-.17.14-.06.23,0,.14h.17l.09.06.19.17.23.11.23.06.28.17.09.06.05.14.12.4.08.19v.12l.14.2.14.34.17.28,0,.23,0,.11v.14l.17.11.36.15.06,0,.06.06v.23l.05,0,.06,0,.23.09.08.08.09.12,0,.11v.14h-.12l-.08,0-.4-.2h-.11l-.14,0-.2,0-.23-.22-.17-.06-.17,0-.4.17h-.11l0,0L184,77l.19,0,.2-.06.17-.08.26.05.05.09,0,.14.17.08.14,0,.17.12.17.19.37.23.14.2.06.14.06.2-.14.06h-.12l-.17,0-.14,0-.14.12-.37.17-.08.11-.06.11-.09.06-.22-.06h-.23l-.25.14-.06.06h0l0,0,.11,0,.17-.08.17.22.31,0,.31-.17h.12l.08,0,.11.09.29.31.17,0,.17.08h.08l.09,0-.2.11-.28.26-.12.06-.08,0,.22,0,.17-.11.09,0,.06,0,0,.14,0,.46h-.09l-.08-.12-.09,0-.08,0h-.14l-.06.06-.06.08.09,0,.17.14,0,.09-.06.06-.11,0,.14.11,0,.11-.06,0-.08,0-.06.09.09.14.08.2v.08l-.11,0-.2.12h-.09l0-.17-.09,0-.05,0-.09.17-.08.14-.09.06h-.17l0,0,.08.06v.05l-.17.2,0,.09v0l-.09.09.06.11,0,.09-.09.11-.08.08-.11.15-.12.08-.17.26-.05.14v.14l-.06.06-.09,0-.11,0v-.08h-.06l0-.06v-.14l0,0,0,.08-.06.06,0,0-.09-.05v.05l0,.06,0,.06.11,0,.06.09.05.11v.06l.06.06v0l-.11.06-.12.08-.14.15-.11.08h-.17l-.09-.06-.11,0,.14.19.09,0h.11l.09,0h.14l0,.11,0,.11-.09.17,0,.15.09.19v.06l0,0-.11-.06-.09,0-.08,0-.09,0-.08,0,0,.06,0,.09.08,0,.06.09-.06,0-.25,0-.06,0-.09.11.06.14-.06.09-.11,0-.14.09-.09,0v0l.06,0,0,.06-.09.17-.11.06-.17,0-.14,0-.11-.06h-.12l-.08.09v.08h-.2v.06l0,0,.17,0,0,.06v.11l-.17.17-.09.12h-.11l-.09.08,0,.11-.06,0-.14,0,0,.06,0,0v.06l-.06.14-.06,0,0-.06,0-.09h-.06l-.08.09-.09.06-.08,0-.06-.05-.14,0-.06.25-.11.09-.06,0h-.08l0,0,0,0,0,.06h-.11l-.06.06,0,.22-.05.09h-.14l-.12-.06,0,0,0,0-.06,0h-.11l-.26.08-.11,0-.15,0-.08,0,0,.09-.06.06h-.14l-.11-.06-.11-.06-.12.06-.08.08-.12,0,0,.06-.06,0h-.11l-.06-.14-.09,0-.05,0,0,.06,0,0v.11h-.06l-.08-.05h-.09l-.08.05,0,.06v.06l0,0v.06l0,0v.06l0,0-.14-.05-.12,0h-.11l0,0v0l.14-.05v0l-.11,0-.11-.09-.09-.17-.11-.08-.06-.09,0-.14,0-.06v-.08l0-.06-.11,0-.08.06,0,.08,0,.06-.15,0v0l.12.09,0,.09,0,0,.09.12v.22l.06.06,0,.06,0,.08-.06,0-.08,0-.06,0-.06,0-.08.06-.14,0-.09-.17-.08.11,0,.23,0,0-.06,0-.11-.09-.08.06-.09,0,0,.06-.06.06L175,90l-.08-.08,0-.06v0l0,0h0l0,.09V90l0,0-.06,0-.14,0-.09-.06-.11-.06h-.08l0,.09-.06.08h-.11l-.09.09,0,.06-.08,0-.26,0-.08.06h-.11l-.09,0h-.06l-.05,0h-.06l0,.11-.14,0h-.14l-.14.14-.12.09h-.08l-.06,0,0-.12h0l0,.12,0,.08-.06.06-.17.11,0,.12,0,.11.23,0,0,0,0,.06-.06,0,0,.06.22.19v.09l0,0,0,.08-.12.09-.25,0-.23,0-.05-.09v0l.05,0h.06l0,0,0,0-.11-.06-.09-.14,0-.11-.05-.09-.06,0-.06-.06,0-.06.06-.17,0-.08.09-.12,0-.14.17-.05v-.15h-.12l-.08-.08,0,0h-.06l-.11-.17,0,0h-.06l0,.2-.14.08-.11,0H171l-.08,0-.09,0,0-.06,0,0,0-.06-.08-.06h-.31l0,0-.09-.09-.05-.06,0,0,0-.06,0,0h-.14v.2l0,.09,0,0-.06,0-.09-.08,0,0h0l0,.08-.06.09h-.11l-.09,0-.11,0h-.2l-.11.12-.09.05-.14,0-.14.06,0,.11v.09l0,.08-.22.14-.06,0-.06,0h-.05l-.06,0h-.06l0,0h-.09l-.08,0h-.12v0l.09.2,0,.09-.26.25,0,.17-.06.11-.14.12-.28.25h-.12l-.08.06-.2.43V93l0,.11v.11l-.08.2-.09.09,0,.11.15.23,0,0,.09.11,0,.08,0,.09.2.23.09,0,.11.06.2.2.11.14-.05.08,0,.2-.14,0,0,0,.17.12.26.37.22.17.23.19.06.2.2.12.22.17v0l.06,0,.14.09.09.11,0,.09.06,0,.06,0h.11l.06.11.08.08.06.09h.06v.14l.14.14.05.14.15.23.11.11.08.06.09.06.08.22.06.23.09.23.08.11v.2l.06.2.05.14,0,.14,0,.06,0,0,.06.23,0,.11-.06-.11v.31l.06.17,0,.2.06.09.08.22.06.09v.28l0,.14-.09-.08-.06-.09-.08.06-.06.09.12.31-.12,0v.4l.06.08v.06l0,0,0,0V102l0,0v0l0,.08v.09l0,.08v.06l0,.08-.06.09h-.11l0,.14,0,.17-.2,0-.14.14-.17.06-.17.14-.17.14-.11,0-.09,0-.11.2-.2,0-.34.18-.11.08-.12,0-.14.08,0,0-.05-.06-.12,0,0-.06,0-.08,0,0,0,.06,0,.2,0,0-.05,0-.12-.06-.11-.11-.14.09h.11l.06,0,.06.09v.06l0,0h-.15l-.17,0h0l.17.09.14.06.06.05v0l-.09.06-.06.08v.12l-.08,0h-.06l-.14-.08-.37-.34.06.08.39.37.06.11v.09l0,.06-.05,0h-.12l-.2-.14-.34-.34-.11-.06.34.4.06.09.05.11,0,.06,0,0-.8.37-.11.14-.08.2L166,106l-.09.09-.25.06-.15,0,.15-.17-.09-.06v-.45l0-.51.06-.26.11,0,.11,0v-.12l0-.08-.09,0-.11,0-.09-.11h0l-.12,0-.05-.06,0-.08-.09-.09-.11-.08-.2-.15-.4,0-.05-.06h0l0,.09-.23.08-.08-.06-.06,0v-.09l.06-.06.11,0,.06-.17-.09-.2-.08-.06-.09-.05-.08.08-.06.14-.06.06-.08,0h-.14l-.06-.2,0-.17,0-.2,0-.11-.14-.14v-.15l-.06-.08,0,0v0h0l0-.09-.12-.14,0-.14-.14-.17-.08-.06,0,.06,0,.05-.11-.08-.12-.09-.11-.17v0l0,0-.11-.14-.11-.11-.12,0-.05,0-.06-.06-.14,0-.34.08-.43-.06-.17.06,0,0,0-.08,0-.12v-.25l0-.17,0-.14,0-.06,0-.08-.06,0-.31-.09-.05-.06-.09.06-.37,0-.14.06-.11.11,0,.14.08.09.06.14-.14.34,0,.08.06.4,0,.23-.06.14-.11.14-.06.23-.08.11-.12.23-.08.28-.06.14,0,.26-.25.4-.06.22-.08.09,0,0v.12l0,.28v.23l0,.11.12.26,0,.08v.11l.08.06H159l.4-.11.14,0,.06.11,0,.08.06.54,0,.09.08.08.09.09,0,0v-.06l.08.12.06.19.2,1,.06.11,0,.14-.11,0,0-.23,0-.09h-.14v0l.06-.08v-.09l-.09,0-.11,0v.15l0,.11.2.26.06.11.09,0,.11,0,.14.11.11.12.26.17.17,0,.17,0h.11l.12,0,.14.14.22.34.37.28.2.06.09,0,.22.37.31.25.15.09.11,0,.14.14.11.17.26.49.06.22,0,.34-.06.49-.06.25v.11l.09.17,0,.17,0,.15v.39l0,.12.06.08.34.23,0,.08.17.29.31.62.09.28v.09l0,0-.09,0-.08,0,0,0v-.06l0,0-.08-.06,0-.06v.2h-.09l-.11,0-.14,0-.17.14H164l0-.11,0-.09-.06,0-.54-.29-.2-.08-.22-.23-.49-.25-.31-.23-.14-.14-.31-.14-.14-.14-.06,0-.06-.06.06-.14,0-.14,0-.14-.22-.26-.12-.17-.19-.17-.09-.11-.08-.12.05,0,.06,0,0-.09-.11-.14-.06-.17v-.34l-.17-.45-.14-.66,0-.22,0-.26-.09-.22-.11-.17-.06-.15-.31-.36-.2-.15,0-.28-.06-.06h-.08l-.06-.08.06-.17-.09,0h-.11l-.08-.06-.06-.23-.06-.05-.08-.12h-.12l0-.05v-.15l-.09-.08-.11-.09-.12,0-.11-.23-.08-.06-.06,0-.09,0,0,.08-.06.09h-.09l-.05-.06-.09-.23v-.14l0-.25.11-.23.06-.37.09-.23,0-.08.09-.34.17-.43h-.06l-.11.17-.06-.08,0-.09,0-.19-.06-.4.06-.06,0,0,.08-.14.09-.14v-.17l.08-.14,0-.12v-.11l0-.11v-.09l.06-.08.11-.06-.05,0,0,0-.14.08-.06,0v-.08l0-.09v0l.06-.06v-.11l0-.09,0-.11h-.09l0,0,0-.06.09-.05-.06-.12.06-.11v-.14l0-.14v-.09l-.06-.17,0-.2-.11-.17-.09-.22-.19-.32v-.25l-.06-.06-.06.4-.05-.09,0-.22,0-.12,0-.2-.12-.19,0-.15-.09-.22,0-.06.11.06-.08-.14-.09,0-.05-.14v-.39l-.06-.15,0-.14-.09-.54-.14-.17,0-.14,0-.14v-.25l0-.09.08-.06-.06,0,0,0-.14,0h-.15l0-.17-.09-.09-.05-.17,0-.2,0,0-.12-.09,0-.06-.11-.14-.14-.11,0,.08,0,.06-.06.11.06.2-.06.14-.06.18-.06.08-.17.17-.14.06h-.08l-.09,0-.08-.09,0-.08v-.14l0,0,0,0,.06.17v.08l.11.14,0,0-.19.09h-.06l-.06,0v0l0,0-.28.11-.06.12,0,.11-.15.17-.19.14h-.06l-.06,0v-.14l.06-.11,0-.14,0,.08-.14.2-.06.06-.11,0-.17,0-.06-.2v-.14l0-.06v-.06l0,.09,0,.08-.06.09-.17.08v-.19l0-.09v-.14l.05-.2V96.8l0-.08,0,.11,0,.12,0,0-.06,0-.11.12-.06.11-.17.11h-.08V97.2l.06-.48,0-.06,0-.08.06-.29.05-.11,0-.23,0,0,.09-.17,0-.31,0-.17-.09-.14-.08-.45-.2-.37,0-.11-.09-.15h.09l-.17-.14,0,0,0-.32v-.17l0,0,0,.12-.06,0,0,.17v.06l0,.08-.14-.08-.12-.09-.14-.19-.11-.23.05,0h.06l.17.17.11,0,.09,0,.09-.08,0-.15,0,0-.09,0-.06,0-.08-.08V93l0-.06-.09,0-.05-.06.05-.09.06-.08h-.14l-.17-.12,0,0-.06,0-.14,0-.11,0,.06.17v0H152l-.14-.25.06-.06.05,0h-.08l.05-.23,0,0,0,.09,0,.08-.14.17-.06,0-.06,0,.06-.08,0,0,0-.06-.06-.08-.08-.06-.06-.11h0l0,.14v.2l-.14-.23-.29-.31-.05-.08h0l-.09-.12,0-.11-.17-.23-.06-.42v-.2l-.11-.26-.09-.34,0-.08,0-.11v0h0l-.05,0-.09-.14,0-.11-.2-.26-.06-.11V89l-.08.11-.12.09-.11.11-.09,0-.25,0,0,0-.08.14,0,0v.11l-.05.28-.06.09-.2.06h-.08A43.46,43.46,0,0,0,178,158h0l0-.37.12.09.08.08h.2l.2-.14.11-.2.09-.22,0-.26-.06-.45,0-.09.06,0,0-.23,0-.68-.06-.26-.29-.51-.19-.45-.15-.2-.11-.31-.11-.45,0-.23,0-.43,0-.22,0-.14-.11-.37-.29-.34-.05-.15v-.14l-.06-.17-.23-.31-.22-.28,0-.14,0-.54-.08-.26-.37-.62-.46-.54-.11-.23-.06-.08h0l.06,0,.06.05h0l0-.05v-.12l0-.05,0,0,.06.12.14.31,0,.14.17.06,0,0,.06-.09,0-.22-.09-.09-.08,0-.14-.17-.09-.25-.14-.23v-.08l.06-.06.11,0,.08.14.12.11,0,.23,0,.06V148l0,.06.06,0,0-.06.06-.14,0,0,.08.28.06.09.11.08.12-.08.05-.06,0-.2,0-.2,0-.14-.25-.39-.23-.49-.14-.22-.11-.37-.09-.11-.11-.2v-.37l.08-.34.09-.17.25-.4v-.28l0-.2V144l0-.12-.11-.22.14-.37.2-.48.09-.09.11-.05,0,.11-.06.34.09.17,0,.2.08,0,.12,0,.08-.11.06-.12.22-.39.12-.14.17-.12.37-.14.34-.17.17-.17.2-.14.14-.14.14-.12.71-.39.11-.09h.34l.17,0,.17.09h.14l.34-.09.17-.08.31-.2.15-.06.31,0,.34-.09.42-.34.32,0,.28,0,.23-.09.51-.05.28-.09L185,140l.14-.08.23-.14.19-.2.2-.26.12-.22,0-.12.12-.19.08-.15.06-.08.2-.11.31-.29.11,0,0-.09-.06-.06-.08,0-.06-.32,0-.19v-.15l0-.14.12-.23.08-.08.12-.11.11,0,.08-.09.15-.08.05-.09.09-.2.08-.14h.06l.11.34.09.17.14.2.14.31.11.14.06.09.06.06v-.12l.05-.22,0-.17v-.06l0,0,.06,0,.11.08.06,0h0v-.14l.06-.08,0-.06h-.09l0-.09-.08-.08-.09-.06-.11-.14,0-.06,0,0h.06l.05-.06,0-.09-.05-.14.05,0,.09,0,.14.23.06,0,0-.08.12,0,.11,0,.06.05.14.06h.17l.08,0h.2l.09,0,0,0-.12,0h-.25l-.06-.06,0-.11,0-.08,0,0,.09,0h.08v-.12l0-.11.06-.09v-.08l-.06,0-.11.17-.06-.14-.09-.12,0-.17.06-.17.08,0,.06,0,.09-.08.05-.09v-.05l0-.06.06,0,.25.14.06.08.06,0,0-.09v-.08h-.2l0-.06v0l-.06-.08.09-.06h.08l.06-.06v-.05l0,0,0,0,.14,0,.14.09.06,0,0,0v-.09l-.17-.08v-.09l0-.08v-.09l.11-.08,0-.09.06,0h.11l.08-.06.09,0,0-.14v-.12l0,0,.08,0,0,.12v.11l0,.06h0l0,0,0-.08.08,0,0,.09V134l.06,0,.06-.11.08,0v-.14l0-.12v-.08l.06,0v-.08l-.06-.06,0-.11.09,0,.08.05.06.15,0,0,0,0,0-.08.09-.06.08.09.11.08.15-.08.11-.17,0-.09V133l.14-.06.12,0,.11.11.23.09.19.11.09.09.17.11.11.11.14.23.34.29,0,.05,0,.09,0,.11-.06.2v.28l.06,0,0-.11.06,0,.06.06v-.06l0,0-.06-.14v-.09l.06-.05.09-.06.08-.06.06,0v-.06l.08-.06.12,0h.08l.51.12.11.11v.14l.06.06,0-.09v-.19l0,0,.14,0,.08,0,.15.15,0,.05.06.06,0-.06,0-.08,0-.12,0-.08h.14l.12,0-.06,0h-.06l-.11-.08-.06-.09.12-.08v0h-.12l-.14-.09-.11-.11.08-.23.2-.2.11-.05v-.09l.06-.14,0-.11v-.09l.06-.08.11-.09.17,0,.08,0,.09-.09.08-.08-.14-.2v-.12l0-.11.17-.08.09-.23,0,0h.14l.06,0v-.2l0-.08.06,0,.08,0,.06.08.11.09,0,0,0-.08v-.12l.09,0h.08v-.14l0,0h.2l.05-.08,0-.06,0,0,0,.14.11.09h.34l.2-.06.09,0,.11,0,.14-.06.09-.06.14.06.06.06,0-.14.09-.06.08,0,.12,0h0l-.08-.11v-.23l0-.14,0-.09-.23-.2-.23,0-.17,0-.08,0-.14-.15-.15-.05v0l.17-.12.06,0,.11.12.06,0h.06l0-.08.05,0,.09,0,.25.17.14.17.09-.06.14-.08.11,0,.09.05.11.2.09.12.2,0,.11,0,.11.06h.14l.29,0,.28.14.11.08.15,0,.08,0h.14l.23-.08.11.08.06.06.2.11.23,0,.17-.11.22-.09.17-.11.12-.06.11-.11H203l-.09.08v.06l.09,0v0l-.12.08-.11.11v.06l.06,0,.05,0,.09-.06.08,0,.09,0,0,.17.05.12.14,0h.09l.08-.14-.05-.14-.06,0,0,0,.2-.23h.11l.09.2.14.11h.14l.08,0,.06.14-.48.51,0,.06.06.08,0,.12-.17.25h-.06l-.06-.08-.08-.06-.09,0-.08,0-.29.14v.37l.09.22,0,.14-.08.26-.09.08-.08.06-.26.37-.08.09-.09.11,0,.11,0,.09.08.08.37.2.17.14.28.17.06.12,0,.08.2.11.14.06.06,0,0,0h.06v.09l0,.06v0l.12.09h.17l.08,0,.11.08.09.06.14.11.29.12.19.08.26.29.2.17.2.11.31.08h.14l.23.12.22.05.12.15,0,.11v.08l.12.2.22.06.29.2.25.08.06.06.11.06h.2l.37-.09.17-.08.23-.17.11-.29.06-.22.31-.46.08-.22.09-.29.06-.2,0-.19.05-.37.15-.48,0-.17,0-.26-.08-.45.06-.17,0-.23-.08-.17-.06-.11v-.17l.09-.29,0-.14.06-.2,0-.37.14-.14.06-.05h.11l.06,0v-.08l-.06-.06,0-.08,0,0-.06,0-.06-.06-.08,0v-.17l.14-.31.08-.12.06.06.06,0v-.09l0-.08.11-.31.12-.43,0-.4.2-.08.09-.09.05-.11h.12l.08.06,0,.08,0,.06.2.17.05.11,0,.11,0,.12,0,.14v.23l0,.22.08.09.06.06h.08l.14,0,0,.15-.06.11v.14l.08.06.09.05,0,.12.14.17v.11l.08.14.06.29,0,.25.06.17-.06.37.06.14.05.11.09.26.05.23.09.05.17.09.17-.09.11-.11.15,0,.17-.06.14.15.08.17.31.22.17.15.15.08.14.11v.12l0,.08,0,.14,0,.15,0,.17.08.28,0,.23.09.22V136l0,.08v.12l.08.14.09.11.11.12.14.19.09,0h.08v.2l.17.37.09.31-.06.43-.06.25v.12l.23.28.14.06,0,.14,0,.22.11.17.11.12.12.08.11.06.17.06.2,0,.11.09.06.08.17,0h.08l.09,0,.06.06,0,.06.09.17.2.17.14,0,.08.08.12,0h.08l.14.06.2.17.2,0,.08.06.2.17.09.09.08.14h-.08l-.09,0,0,.14.11.2.14.14.17.14.11.15a43.41,43.41,0,0,0-3.51-57.46ZM183.63,158h1a43.66,43.66,0,0,0,15.11-2.69l-.4-.23h-.14l-.4.09-.14,0-.59-.4-.4-.2-.14,0-.17,0-.15,0-.08.06-.2.06-.76,0-.68.06-.46.05-.28.06-.48.25-.57.23-.45.11-.43.15-.28.05-.37,0-.77-.08-.25.05-.43.29-.11.05-.23.09-.59.34-.29.08-.17,0-.14.09-.14.14-.2.42-.11.2-.26.31-.17.12-.17,0-.19.11-.17-.11-.15,0h-.22l-.74.14-.11-.17-.14,0h-.26l-.4,0-.71,0-.34.06-.14.06-.25,0-.43.06-.14.08-.11.09-.06.08Zm1-34.52v.17l0,0,.06-.19,0-.4,0-.09-.06-.14,0,.12v.25l0,.11,0,.09Zm-1.53,3.71-.17.06-.05,0-.06,0,0,.06,0,.06,0,0,.05.06.34.08h.12l.17,0,.25.17.14.06.09.08,0,.09.12.08.14.06.17,0,.06,0,.14-.06h.08l.06,0,.11-.11,0-.09-.06-.08-.11-.06-.08-.11-.09-.11-.06-.06,0,0h-.17l0-.06v-.08l0-.06-.2-.11-.05-.06-.06,0,0,0-.11,0-.06,0-.23,0-.22,0h-.14Zm4.79-9.72-.05,0-.23,0h-.08l-.09.11,0,.17.06.14,0,.06.11-.09.14-.19.06,0,0,.22-.09.09v0l.06,0,.06,0,0,0,.06-.17h.06l0,.08h.09l.08,0,0-.15,0,0-.05,0-.06,0-.11,0-.12.17-.05-.11.05-.06,0-.09Zm-4.36,8.79,0,0v-.06h-.09l0,0,0,0,0,0v.12l-.06,0,0,.09,0,.11.06,0h0l0-.09,0,0,.06-.06Zm3.26-3.89,0,.09h.08l0-.06.09.06h.11l.06-.06,0-.09,0-.14.17-.25,0-.31-.06-.06-.06,0-.17.08-.19.09,0,.08,0,.17v.09l-.08.08-.06.23ZM185,124.5v-.06h0l-.15-.06v.12h.2Zm1.25-2.27,0,.06.06.11.14.14.09,0,0-.25,0-.09-.06,0,0-.08h-.06l-.05,0v0h0l-.06.06Zm-7.09,4.2v0l0,.06.17.06.26.05h.05l.12,0,.25-.06,0,0-.05,0,.14-.26.11-.28,0-.06,0,0-.06,0-.28-.08-.12,0-.11,0-.2.17,0,.2v.17l-.06,0h-.14l-.06,0Zm-.85-.8-.2.14-.08,0H178l-.26-.06h-.17v.12l0,0,.08.12.06,0,.14,0,.14,0,.15.09.11.08.06.06,0,.09v.08l0,.09,0,0,.06,0,0,0,0,0v-.06l.05-.11.06-.06.26-.11.11-.09.06,0,0-.06-.17-.2-.12-.06-.14,0-.17-.06h0Zm2.84.37h0l.14-.2v-.06h-.14l-.06,0v.06l0,.08,0,.06.06,0Zm-2.53-1.7h.15l0-.06-.06,0-.08,0h-.09l-.14,0,0,.06v.06l.09,0,.08,0,.06,0Zm1.59,2.38,0,.06.09.05.11,0,.11,0,.12,0,0,0H181l.14,0,.26-.12h.17l.25-.08h.09l0,0,.06,0,.17-.17,0,0v.14l0,.06h0l.23-.06h.06l.08,0h0v0l0,0-.08,0v0l.08,0h.12l0,0h.06l.09,0,0,0,0-.06,0,0-.05,0,0-.06V126l-.06-.14-.08-.06h-.09l-.06,0,0,0,0,.08,0,0,0-.08-.05-.06h-.17l-.06,0-.11.08H182l-.06,0,0-.06-.06-.14,0,0-.23,0h-.05l-.14.06,0,.06,0,.08.05.09.2.14h.17l.09,0,.08.09,0,.09h-.11l-.17.08-.09,0h-.11l-.11-.14-.06,0,0,0,0-.08-.05,0h-.26l-.17-.06h0l-.12.09-.14,0h-.08l-.06,0,0,.09,0,.08,0,.17,0,.12v.11ZM178.52,141v.06l.09,0,0-.09v-.08l0-.06-.09.09-.06.08Zm.2-14.59,0,0,.09.08,0,0v0l-.05-.06h0l-.09.06Zm.91-6.47-.14.09-.06.14-.06.17v.11l.06.15,0,.22,0,.06.26-.23,0,0,0-.06,0-.06,0-.22,0-.06v-.06l0,0v-.17h0Zm.23.17,0,0-.09.14.09.12,0-.2v-.09Zm13.12-4V116l0-.08,0,0,0,.11h0l0,.06v0Zm-.17.59.08.12.12.05,0,.12,0,.08h0l.14-.06,0,0,0,.06.12.06.08,0,.06-.06,0-.06,0-.05,0,0h-.17l0-.09.08-.17-.14-.17-.06,0-.05,0-.06.09-.11-.09h-.06v.06l0,.09v0Zm-2.27-3.91,0,.06.06.14v-.09l.06-.05,0,0ZM195.16,82l0,0-.08,0,.06.11.11,0v0Zm-4.48,43.88.09,0,.08-.2h0l-.06,0Zm5-7.54.17.11.25.06.06,0,.14,0,.06-.05.06,0h0l.06,0,0,0,0-.05,0,0,0-.12-.08,0v-.06h-.06l-.14.06h-.12l-.14,0-.31.14Zm.91-39,.14,0,.05-.14,0,0-.17-.11-.15.11.06.17Zm-8.22,46.57h0l-.06,0h-.06l-.08,0v0l0,0h.05l0,0-.15.11-.11.12h.11l.09,0h0l.05,0,.09,0,0,0v-.09l.05-.06h.09l.11-.14.17,0,0,0-.05,0-.09,0-.2.11ZM196,76.73v.06l.09-.06.14-.14v-.2l0,0-.2,0v0l-.06.17.06.06v0l-.06,0,0,0Zm-1,42.84-.05-.06,0-.06h-.09l-.08,0h-.14l-.26,0-.45,0-.12.09-.28.34,0,.08,0,.06v0l0,.12h0l0-.09.09-.11,0-.06,0-.08,0-.06.06,0,.06,0,.05,0,.06.06.17.19.06,0h.05l.15,0,0,0,.09-.12.05,0,.09,0h.11v.05l0,0,.17,0,.11.06.15,0,.17,0,.05,0V120h.37l.14.09,0,0,.06.06.31.11.11.06.26.14.25.14.06-.34,0,0-.08-.15h-.06l-.06,0,0-.09,0-.08-.06-.12-.23-.17h-.08l-.23,0-.14,0-.28-.14-.17-.06-.06,0h-.11l-.06,0-.11.09-.12.06H195Zm1.42-3.35v.06l-.06,0,.12.06h.19l.06.11h0l0,0,.08,0v.11l.06.06.17,0v-.09l-.06,0h-.11l-.09-.14-.05-.06,0-.06h.08l.15.17.11.06.06.08,0,0,.12,0,.08,0,.06,0h0l.09-.08-.06-.06,0-.06-.06,0-.31-.15h0l-.2,0-.12,0-.17,0,0,0h-.06l-.08.06-.09,0-.08,0Zm-7.43,7,0-.09,0,0v.09l0,0,0,0Zm-.39,4.3-.06.12,0,.17-.06.14V128l.15.08,0,.06-.06.05,0,.06v.06l.06,0,.11.06h.14l.15-.06.25-.14.17,0,.11,0,.09-.09.11-.11.12-.09.17-.2.14-.11.06-.11.25-.2.23-.14.39-.14.12,0h.11l.14-.09.12,0,.11,0,.14,0,.11-.06.09-.08.11-.06.14,0,.15,0,.22-.17.23-.2-.06,0-.05,0-.2,0-.12,0-.08,0-.06.06-.14,0-.14.06h-.11l-.43,0H191l-.51.11-.06,0-.17.06-.09.08-.11.17-.17.15-.23.11-.08.06-.09,0-.45.12-.26.14-.11.08-.2.2Zm.25-1.39H189l.06.15.09,0,.05,0,.06-.14.08-.09,0-.11,0,0h0l-.14.2h0l0-.06H189l0,.06-.06.11Zm.54,0,.08,0,.77-.11,0,0v-.14l-.09,0-.14,0h-.28l-.09,0,0-.08h-.08l-.09,0-.05.09,0,.06-.09.11,0,0Zm-.62-7.66-.09-.08v.05l0,.09h.08Zm2.12-6.32,0,0,0,0,0-.12-.06-.11-.09-.08,0,0,0,.06,0,.06,0,0V112Zm.51,6.92v-.11l-.11-.23,0-.2,0-.06h-.06l-.05.09v.05l.05.18,0,0,.06.17.08.06,0,0Zm-.31-11.11v-.2l-.08-.06,0,.14,0,0,.08.17,0,0Zm0,17.54v.12h0l.14-.09.11,0h.09l.08,0h.17l.2,0,.06-.09,0-.08.15-.06.14,0v0l0-.06h-.09l-.14-.11-.17,0-.11.09-.17,0h-.14l-.14,0-.17.17Zm-.6-7.11v-.09l0,0-.06,0h-.09v-.09l-.05,0h0l0,.06h0l-.11,0-.37-.08h-.23l-.08,0,0,0-.06.2.12.17h.11l.14,0,.23-.08.2.05.14-.05h.25Zm.09,0,.06.06v.05h.05l.43,0h.14l.4-.05,0-.06-.37,0-.36,0-.23,0h-.09l-.05,0Zm4.87-2,.06,0h.06v0l-.29-.23.09.14.11.09Zm20.33,2.38,0,.06h0l.09-.06H216l.06,0,.23.06h.17l.08,0,.09,0,.11-.12,0,0h.11v-.05l0,0h0v0h0l-.4-.09-.25,0-.12,0H216l-.09.06v.11l-.08,0v.06ZM193.6,73.45l.06,0,.06.08h.08v-.14l0-.08-.08,0-.06,0-.11.06v.08l0,.11h0Zm1.68.53.08.06,0-.06V73.9l.11-.17v-.2l0,0-.14.12v.11l-.08.2,0,0Zm24.91,45-.14,0-.17.09,0,0,.06,0,.05.12.09,0,.08,0,.23,0v-.17l0,0-.25-.12ZM193.38,84.39l-.09.14v.14h.09l.08-.06v0l0-.06v-.06l.09-.08h0l0-.06v-.08l.11,0,.12-.09.11,0,.06,0L194,84l.06-.08,0-.12-.08-.08-.06.11-.11.11,0,.06-.06,0h0l-.06,0-.12,0,0,0v.06l0,0,0,.06-.11.11,0,0-.08,0v.17ZM193,114.8l.11.26.11.08v.06l0,.06,0,.08v.09l0,.14.08.11.06.06.05.06,0,.17v.28l0,.08,0,.09.05.06.14.08,0,.06.15.28,0,.06.23.08.06.09.17,0-.12-.09L194,117l-.2-.29-.14-.28-.12-.34,0-.11v-.06l0-.11,0-.09,0-.08.06,0h.14l.14.06.14,0h.15l.11.06.42.14,0,0-.06-.06-.08,0-.06-.06v-.08l0-.09-.06,0-.25-.12-.17-.11v-.08l.06-.09,0,0,.2-.08.2-.12,0,0,0-.32,0-.11,0-.08,0-.06-.17,0-.14.05-.23.15-.09.11v.17l-.05,0-.09,0-.11.08-.06.11V115l-.06.06h-.08l-.09,0-.05-.06-.06,0v-.06l0-.06.28-.17.12-.14,0-.06,0-.14v-.14l0-.14-.09-.11-.09-.06v-.09l0,0,.15-.2v-.11l-.09,0-.09.06-.19.2-.12.14-.08.17,0,.09,0,.08v.11l-.14.26v.14Zm2.38-39.37v0l-.06.08h.06l.08-.05,0-.09.09-.11h0l-.09,0-.05.08Zm-7.48,42.8,0,0,0,0,0,.06v.05l.09-.08,0-.06Zm7.93-43.45,0-.11-.05,0,0,0,0,.11.06.06Zm-.73-.54,0,.09.09-.06.06-.14V74l-.15-.06,0,.23Zm.51,1.05,0,.14.11.06.17.14.11.08,0,.06.09.17H196l-.08-.06-.06-.11-.11-.08,0,.08v.09l0,.08.11.11.06.09,0,.11-.06.09.12-.06.11-.14.11-.06.12,0,0,.06.06,0h.06l.05,0,0-.09V76l0-.06-.05,0-.06,0h-.06v-.23l0-.11,0-.06.09-.05.06,0,.11.08.06.2.11.17,0,.11-.09.12.09,0h.08l-.08.23-.12.2-.08.11-.09.12-.11,0,0,0v.2l0,.14,0,.12.06,0,.06.06.05.11,0,.15,0,0,0,0-.14,0,0,.14.06,0h.08l.34.11,0-.05,0-.06-.08-.11,0-.06v-.09l0-.14.05-.14.06-.06H197l.08,0,0,.06v0l0,0h0l-.05,0v.06l.08.2,0,.14,0,.14,0,.06,0,0,0,0v.06l.25-.11.23-.2-.09-.17.06-.09h.08l.15,0h.11l.14-.34,0-.14,0-.14.06-.15,0-.14,0-.14.05-.14.06-.17.08-.17.29-.34,0-.06v0l-.12-.09,0-.06v0l-.06-.06,0,0v-.08l0-.09h-.22l-.23,0,.09-.17.11-.14,0,0,0-.06-.06-.06-.08,0-.12,0-.08.06-.06,0h-.05l-.18,0-.14-.09-.05-.14-.06-.11-.14-.06H197l-.06,0-.23.11,0,.06,0,.09-.09.14-.11,0h-.14l-.06,0,0,.06,0,0-.17,0-.11.06v.06l0,0,0,.05-.17-.05h-.06l0,0Zm-.4,6.66.11.09.12-.12,0,0,0,0,.05,0,.09-.09.08,0,.09,0v-.06l0,0-.11,0,0,0,0,0-.06.06h-.05l-.17,0-.09.06v0l0,0,0,0,.14.06Zm29.05,38.92h0l-.06.06.08,0v-.08Zm-4.87-3.18,0,.06v.09l.14.11h0l.08,0v0l-.05-.14-.12-.09h0Zm2.38-10.29h.08v-.08l0,0h0v0h0Zm.57,12.22h0v-.05l0,0-.12-.09,0,0,0,0Zm-3.35,3-.14-.06-.14-.06-.26,0-.08,0h-.06l-.06,0h0l-.17-.06-.12.09v.14l.09.11.14.06.14,0,.12.06.11,0,.34.23h0l.17-.06h.14l.11.06.14.17.06,0h.63l.28,0,.06,0,.14-.08.14-.06.06,0,.05-.06.14,0,.15,0,.05,0,.17-.08.12-.09.11-.11,0-.06,0-.06v-.08l0-.06h.23l.2,0,.11-.06.14-.08.09-.12-.09-.14-.11-.11V122l0-.08h.17l.06,0,0,0,.12-.14.05-.11v-.12l0-.08,0-.09.05-.17-.11,0-.11,0-.09-.09-.17.12-.06,0,0,0-.06-.06-.14,0h-.14l0,.06,0,.06v.05l.14.34,0,.15v.14l-.11,0h-.23l-.06,0-.22.17-.09.12-.05.14-.09.11-.06,0h0l-.06,0-.06.06h-.14l-.11-.09-.14,0-.12.08-.14,0-.08-.12,0-.14v-.14l0-.06.08-.08-.05-.06h0l-.06,0,0,.11-.05.37-.17.09h-.23l-.2.05h-.28Zm4.85,6.85-.11,0v0l0,.09.12.06,0,.05.08,0,0,.09.17,0,0,0,.17,0,.09,0-.06-.06-.2-.06-.28-.14Zm-1.56-10.23-.06,0,0,.06v.09h0l.06,0Zm-1.5,0,.11.06H221l.12.06.39.25.09.09.14.05.25.23.12.08.11.06.06,0,.14,0,.06,0,.11.08.08.11.29.4.08.17,0,.17v.09l0,.08v.09l.09.17.05.08.06.09.06.08.08-.08.06-.12,0-.11v-.11l.08-.12,0,0v-.12l-.14-.17-.77-.62-.05-.09-.17-.14-.14-.14,0,0-.26-.08-.14-.12-.11-.08-.14-.09-.2-.08h-.12l0-.09-.23-.11-.2-.14,0,.08,0,.09-.08,0Zm1.33-12h0v0h0l0,0h-.06Zm1,12.53,0-.11-.08,0,0,0,.06.08.08.06,0-.11ZM193.43,73.45l-.05,0,.05.06v0l0-.08Zm10,56.43.2-.08.05,0,.12-.09v-.05l0,0-.23.11ZM201.6,124l0,0,0,0,.06-.09v-.06h-.06l0,0,0,.06V124Zm.14-.66v-.14l-.06-.11.06-.09,0-.08v-.14l-.06-.12-.05,0,0-.06,0-.06,0-.05h-.14l0,.11,0,0-.14.2-.12,0-.05,0,0,0,.14.12-.06.17v0H201v.06l0,0,.11.08,0,0,.09.09.11.08.23,0,0,0h0l0,0,0-.11,0,0Zm.06.26v.06h0l.09-.15h0l0,0,0,.06Zm-.09.14-.06-.06-.05,0,0,.09h.05Zm-2.44-.71h0l.06,0,.08-.11v-.09l-.08-.14,0,0,0,0h-.08l.05.14,0,.14,0,.06Zm-.14,6.44,0,0,0-.17,0-.09v-.14l0,0-.06.09h0l0,.08,0,.06.08.2Zm.51-6.78-.08.09,0,.11-.09.23.09-.12.05-.19.17-.2.06-.26,0,0h0Zm.54-1.67-.17-.11,0,0,.2.12.14.05-.06-.05-.11-.06Zm.82,2.69h-.06l-.05.34,0,.09.14.08.14-.08,0,0,.06-.17.11-.11,0-.09,0-.08-.15-.06-.11-.09-.11-.11-.09-.06-.06,0v.09l0,.2.09,0v0H201Zm6.49,11.88h0l-.14.06-.2,0-.08.09-.09.11,0,.12v0l.08,0h.06l.08,0,.06-.06.06,0,.08-.11.06-.06.17,0-.12-.14ZM197.23,79l.09-.15,0-.19,0-.06h0l0,0-.09.17v.11l-.08.17v.09h.11Zm13.52,49.2-.05-.05h-.09l0,.05,0,.06.09,0,.08-.09Zm-.2-.05,0-.09-.05,0-.06.09.06.08,0,0Zm-12.41-3.6,0,0,.05,0h.09l.06.06,0,0,0-.06-.08-.11h-.2Zm8.16,1.5.31,0,.06,0v-.06l-.11-.2h0l-.11,0-.06.09-.06,0v0l0,.06Zm-2.49,8.62v0h.08l0-.11h-.11l0,.06Zm.59.22.06.06.06-.06,0-.05v-.09l-.06-.08,0,0,0,0,0,.06.05,0Zm-.17-.17h0l0,0,0-.12,0,.06v.08Zm2.44-9.27.11-.22,0-.14-.09-.09-.11-.11,0,0h-.26l-.28.06-.14,0-.11.09-.09.08-.2.34-.17.4,0,.14.06,0,.23,0h.14l.37,0,.28-.17.09-.09.19-.17.12-.19Zm-2.32,7.6,0-.08h0l-.06,0-.11-.05-.06-.06v-.06l.06-.14,0,0h0l.09-.09,0-.06,0,0,0,0,0,.11h-.06l-.06-.06,0-.08v-.06H204l-.09.06,0,.08-.15.09,0,.17,0,.14,0,.06-.06.05,0,0h.11l.23.06h.14l.17,0Zm-.26-3.71,0,0-.05,0-.12.17,0,0v.06l.08-.09.17-.22.06-.23-.06,0v.08l0,.06Zm-10.34-11.4-.15-.11-.2-.09-.11,0-.06,0-.17.12L193,118v0l.08.06.12,0,.22-.06h.2l.17,0h0l.09-.06v0Zm-.6,2-.06,0,.06.06.11,0,0-.06,0-.08h0Zm.31,5.76,0,.08.26.09.11-.12,0,0h-.11l-.2-.06-.06,0Zm.48-5.19.06,0,0,0v-.06l0,0,0,0,0,0H194l-.17.08-.11,0-.12.08v.09l.06,0,.08-.06.06,0h.06v0l0,0h.06Zm-.25-.93-.06,0-.11.06,0,0h.11l.06-.09Zm4.42,5-.06,0-.08,0,0,0v.06l-.06,0,0,.08,0,0-.09.12-.05,0-.06,0-.09.17v.06l0,0v.11l-.06.09.06.05v.09h.08l.15,0h0l0,0v0l0-.09.11-.11,0-.06.09,0,.05-.06.09-.23-.06-.19.12-.09-.06-.06Zm-8.5,9.72h0l0,0,0,.05.06.06v.06h0l0,0v-.06l0-.05,0-.06Zm3.43-9.16.05,0V125l-.11,0V125l0,.08Zm-2.7,8.17-.05.05,0,.12.06,0,.08-.08v-.12Zm2.44-16.44-.06.17,0,0,.12,0,0,0v0l0-.17Zm-5,4v0l0,.11.09.09h.08l.12-.14v-.09l-.06-.06-.23,0,0,0Zm8.9-3.71-.06.05.51-.08.06,0,0-.06h-.11v.06h-.23l-.05,0h-.14l0,0,0,0Zm.22-.43.06,0,0,0-.06,0h0l0,0h-.06l-.08,0,.11.06h.06Zm.12.68,0,.09.06.08.09.09.14,0,0,0,.05-.14,0-.26-.06-.06h-.11l-.06,0-.25.08v0l.06.08v0Zm.28,12.84.4-.25.11-.14h.09v-.09l.08-.08,0,0,0,0-.06-.09-.14-.08-.06-.06-.06.06-.08,0-.14.08h0l-.09,0-.2.09h-.17l-.08-.09-.06,0-.11-.12h-.06l0,0,.06.11,0,.17.11.2.17.14.37.23Zm-2.66-9.89v-.06l0,0h0l-.09,0v0l0,.08h.06l.06,0Zm1.61,9.61,0,.11,0,.06h.06l.22-.06.23.09.11,0v-.06l0-.05-.06,0-.09,0,0-.11-.06-.09v-.11l-.06-.12h-.05l-.06,0-.11.14,0,.09v.14l0,.06-.09,0Zm-1.93-9.69,0,0-.06.12.2-.06,0-.06-.11,0Zm.26,4.22,0,0-.06,0,0,.06,0,0,.08.06.06,0v-.08Zm2.83,1.33.17-.08h-.11l-.09,0-.22.2-.06.08.11,0,.06-.08.17,0Zm-1.7-.48v.14l.14.14h.09l.06-.11v-.09l0-.08-.2,0h-.06Zm.12-47.93,0,.11,0,0,.08-.11V77.3Zm11.62,59-.06.06,0,.06.06,0,.14,0v-.06l-.09-.05,0,.08ZM203.27,118h-.14l-.48,0v0l0,0,.46.09.22.08.17,0,0,0,.12,0,.17,0,.19,0,.12,0,.22,0-.08-.06-.11,0-.4,0-.23-.08-.25,0Zm.23-.76-.12-.11-.2-.17-.05,0-.12,0-.08-.06h-.09l-.25-.06v.06l.06.08,0,0v0h0l.14.12.12-.06.08.26,0,.11.08.06h.12l.14,0h.06l.17,0,.08-.09-.11,0Zm2.41-12.42,0,0,0-.06h-.06l0,0,0,.06,0,0v0l.09-.08h.06Zm8.87-8.22,0,0h.05v0l0,0h-.08v0ZM210.7,83.91l-.06-.09-.06,0h0l.09.14h0Zm4.16,9.8v0l0,0h-.05v0l0,0,0,0Zm-.59,5.64,0,0v0h0l-.09,0v0l0,0h0Zm-.63,1h.06l.06-.18.2-.19,0,0,0,0h-.06l-.05.11-.17.12v.17l0,0Zm-12,6.71-.06,0-.06.09v.11l0,.08.09,0v-.06l0-.09,0-.19V107l-.05.11Zm-3.24,9.78-.11.06-.4.08-.19.06-.06,0v.17l-.09.2,0,0-.09,0-.06.06-.05.11v.06l.08,0h.17l.09,0,.06-.06.51.17.11,0h.11v.17l.09.26,0,.05.05.06.06.06.11.08.12.09H199l.11,0,.14,0,.29,0h.11l.31-.06h.34l.26-.06.25-.11v.05l0,0-.05.06-.06.09h.14v.11l0,0h-.05l-.09,0,0,.11,0,.08-.06,0-.06-.06h-.08l-.14,0-.17-.06-.09,0-.08,0-.12.06-.17.2-.19.14-.09,0-.08,0-.32-.06h-.11l-.2.08-.11,0,0,.09.05,0,.06,0,.17,0,.11,0,.26.17.23.2.08.14.06.17-.14.17.05.14.06.14,0,.06.05.06.06,0,.14,0h.2l.17-.19,0-.06,0-.06v0l.11-.15,0-.11,0-.11h.09l.06-.06v-.25l0-.06.09-.06h.08l-.08.12-.11.11,0,.08v.2l.05.12.12.08,0,0,.06.06,0,0,.06.06h.08l.09,0H201l0,0,0,.08.08.06.15,0,.08.06.09,0h0l.12-.06h.05l.15,0-.23,0,0,0v.09l.09.14.53.31h.29l.31,0,.31.06.14,0,.14.09.23.06.28.14.29.08h.08l.06,0,.06,0h.08l.06,0,0,0,.06,0,.06,0,0,.08.54.29.05,0,.06.06h.06l0,0,.09.06.08.05,0,.09,0,.08v.06l0,0h.12l.11,0,.11,0-.11.06-.06.08.09,0H206l-.08.06,0,.08.08.2.09.26.08.14.14.11.06.09,0,.11.08.06.06.08-.23,0-.11,0v0l.14.17.14.08.26.09h.17l-.14,0h-.06l-.11,0h-.06l-.08,0-.06,0,.06.06.08,0,0,0,.06.12,0,0,.09,0,.05.09,0,0,0,.06-.06.17-.08.09,0,.14,0,0,0,.06v.06l0,0,.06,0,.17-.14.14-.06,0-.11v.09l0,.08.06.06.08,0,.17,0,.17-.06.17,0h.17l.12-.08.08-.12-.08.2-.06.06v0l0,0,.11.11.46.37.11.11.09.14.14.15.17.14.25.17h.09l.08-.06.14,0,.15.06.11,0h.11l.31,0,.32,0,.08,0,.11.06.06,0,.11.09.15,0,.25-.14.26-.15.17-.05.17-.09,0-.05v-.12l0,0-.09-.12-.11-.11-.14-.12-.06,0-.06,0-.25-.12h-.26l-.11,0-.11,0,0-.09,0-.06h-.14l.08,0h.09l0,0,0,.06.06.08h.09l.11,0,.11,0,.12,0,.11,0h.23l.22,0,.2,0,.2-.06,0-.11-.06-.11,0,0,0,0h.15l.14,0h.11l-.06-.09h.12l-.23-.48-.11-.11.08,0,.06.06.06.09.08,0,.09,0,.2.06h.08l.06-.06.05-.06h0l.06,0h0l0-.08.08,0,.11,0,.12,0,.11,0h.11l0,.12.06,0,.06,0,.14,0,.14,0,.11,0,.23.08.11,0h.2l.06,0,.05,0,.26.11.06.06,0,0,0,.06.06.06.08.11.06.14.2.23.08.11.12.23.08.09.2.08h.06l.06,0,0,.12v.11l.11.17.06.06.28.17.14.11.12.14.05.14.09.06,0,.06.12,0,.14,0,.2.06h.05l.06,0,.14,0,.14.05H218l.2,0,.08,0h.09l.14.08.11,0,.51,0,.23.06h.14l.12,0,.08.06.14.11,0,0,0,.09.14,0,.2,0h.11l.06,0,.17-.08,0-.06-.06,0-.14-.05-.08-.12.05,0,.23,0,.06,0,.19-.09-.22,0-.14-.06-.2,0-.09,0-.08-.06L220,128l-.15,0,0,0-.06,0-.06-.09-.05-.08v-.09l.11,0h.09l0,0,0-.06-.06,0-.14,0-.14,0-.34,0-.06,0-.2-.09-.08-.11,0-.14.05-.14,0-.15-.06-.05-.06,0h-.05l-.37.08h-.14l-.12-.05-.05-.14-.09-.29-.06,0-.19-.14,0-.06v0l0-.14-.06-.2,0-.06-.22-.14-.14-.06-.12-.08-.22-.2-.12-.11-.11-.09-.11-.08-.09-.12-.11-.25-.17-.29,0,0v-.06l.2-.14.28,0,.43,0,.11,0,0-.06v-.14l0-.2,0,0-.06,0,0,0-.09-.11-.11-.12-.06,0-.11-.06-.06,0h-.28l-.12,0-.76-.36-.23-.09-.25-.06-.17,0-.15-.09.06-.26v-.34l0-.08-.51-.51H214l-.14,0-.09-.08-.08-.12-.11-.11-.12-.09-.14,0-.08-.09,0,0-.06,0-.06,0h0l-.14,0h-.2l-.06,0-.14-.11-.12-.09-.11-.06-.23-.17-.17,0-.28-.06h-.14l-.14,0-.43-.14-.39-.14-.26-.14h-.11l-.06,0-.17-.11-.59-.26-.09,0h-.42l0-.11-.06-.06-.06,0-.39,0h-.06l-.06-.06,0,0h-.43l-.37-.17-.28-.14-.11-.09-.15-.05-.14,0-.11-.06-.09-.08-.11-.06-.65-.2-.11-.06-.12-.08h-.11l-.23.08-.28.15-.26.14,0,0v.06l0,.11v.06l-.11.09-.28.11-.29,0-.25.06-.06,0-.06.12,0,.11,0,.06-.29.17,0,0-.09.17-.08.12-.29.22-.08.09-.09.08-.14,0h-.14l-.2,0-.06,0-.14-.09,0-.06,0-.11v-.14l0-.09-.09,0h-.08l-.06-.25v-.14l0-.06-.08,0-.06,0,0,.06v.14l0,.14-.11-.26-.2-.36-.06-.15,0-.14v-.14l0-.14,0-.14.06-.12.08-.11,0-.06,0-.14,0-.06-.06-.11-.08-.11-.06-.12,0-.11,0-.06-.12-.08-.05,0-.14,0h-.15l-.31,0-.25-.11-.23-.14-.25-.11-.29-.06h-.28l-.31.11-.06.06-.06.06-.08,0-.09.09Zm-.85-4.36v0h0l0,0v0h0Zm1.65-38.27,0,0,0,0h0l0,0,0,.06.11,0Zm-.26.37.06-.06,0,0h0l-.14,0-.06,0h-.06v.11h.06l.11,0Zm15.88,23.53h.08v0l0-.06V98l0,0h-.06l-.08,0,0,.12Zm-13.5,20.38,0,0v.06l0,0,.06-.08,0,0h-.05Zm.66-1.31-.09.06,0,.06.06.08.06,0,.05,0,0-.08H202l0-.06-.06-.06Zm19,11.4,0,0,0,0,.08,0,0-.08,0,0Zm-6-34.16,0,0-.09.11.06,0,.06,0,0-.06Zm-3.09,31.63.05.09.09,0,.17.11.17.09,0-.06-.17-.14-.17-.06Zm.45.06V126l-.06,0H212l.05.06.2.08Zm6.46,14.26,0,0v0l-.06-.05,0-.09-.06.17.06,0h.05Zm-.11-.28,0,0,0,.06h.06l0,0,0-.11-.06,0Zm-3.2-2.27,0,0-.06,0h-.11l0,.05.08.09.06.11.08,0,0-.06,0,0-.06-.09,0-.11h0ZM221,127.36l-.11-.11-.06,0-.08,0-.17-.09h0l-.08,0v.09l.08.11,0,0-.05.08h.17l.11,0H221v.06l0,0v0l0-.06v-.11Zm-10.34,1.5.08-.05-.08-.15-.09.06v0l0,.08Zm4.05-30.61v0l0,.08.06,0,0-.12h0l-.06,0Zm.45,23.24,0,.06,0,.08,0,.09,0,0,.09,0,0-.11,0-.09-.06,0,0,0Zm2.19,1.14v.11l.11.14.11.06,0,.06h.06l0-.09,0-.14,0-.06-.26-.14h-.05l0,0Zm3.94,3.43-.06,0-.06.09.09.06v.08l0,.12.09.08,0-.08,0-.2,0-.06v-.11h0Zm-4.65-3.55.06-.05,0-.15-.09-.08-.14.08v.06l0,0,.11.11Zm3.77,4.85,0,0,0-.11v-.06l-.06-.11-.14-.06-.09.06,0,.11.2.17Zm-3-8.59,0,.06h-.06l0,0h.08l0-.06-.06-.06,0,0Zm3.58,8.85-.06,0,0,.08.08.12,0,.11.06,0V128l.25.09.06.05.08-.28-.05,0-.09,0-.08.08h-.06l-.06,0v-.06l-.22-.17-.06-.08ZM152.1,101.85l0,0,0,.05.08.09-.06-.17h0Zm.15,4.53h.05l0,0-.05-.12,0,0,0,.06.06.06Zm-1.48-16h.09l0-.11,0-.09,0,0h0l-.06,0,0,.17,0,.06,0,0Zm-.39-1.08v-.05l0-.09-.06-.11,0-.06,0,0,0,.14,0,.12.06,0,.06,0Zm-.49,0-.08-.2,0,.51.11-.08,0-.14,0-.12Zm2.21,3.12,0-.11-.06-.15L152,92.1v.11l.09.17,0,.06Zm-.34,8.33,0,0h0l0,0v.17l0-.08,0-.11Zm-.11,1v.11l0,.08-.05,0,0,.06,0,.06,0,.14.12.22,0,0,0,0,.06-.11v-.14l0-.14V102l0,0,0,0,.06-.06,0-.06.08-.11,0-.06,0-.25.09,0,0-.11,0-.37-.09-.12,0,0,.06-.12,0,0,.06-.08,0-.09v0l-.06-.12.09-.08V100h0l-.12,0-.08.15v.14l-.06.23,0,0,0,.14-.05.06,0,.06,0,.14,0,.06,0,.08v.23l0,0,.05,0v.09h-.11l0,0,0,.08Zm-.93-11.94,0,.06,0,.08,0,.09.05-.11v-.06l0-.06Zm7.93,12.3-.17,0,0,.09v0l.06.14h0l.08,0,0-.26,0-.08Zm12.56-9.44-.2.18-.14.08-.11.09,0,0,0,.06,0,.43v0l.06.14,0,.26.25.14.14.06.17,0,.2,0,.06,0,.14.09h.09l.11,0,0,0,.05-.11.06-.06.17,0h.06l.05,0v0l0,0,.14-.09.11-.11.06,0h.05l.09,0,.06-.06,0-.08.06-.2.06-.17v-.11l0-.06.05-.11.23-.34.11,0,.12-.09,0-.14,0-.14,0-.09-.06-.05-.08,0-.09-.06-.08-.08h0L173,92v.15l-.19-.09h0v.11l-.06-.08-.14,0h-.06l-.11.09-.2,0-.31,0-.09,0-.08.09-.11,0-.12,0-.05,0-.06,0-.06.09h.12l-.12.11-.14.09Zm-1,19h0l-.11.08.08.06.17-.06.09-.17v-.2l-.17-.2v-.08l-.06,0-.23.2v.08l.06.12.06,0,.2.06v0l0,0Zm1,3-.08.08L171,115v.14l0,.31,0,.2.14.12.09.11,0,.06.06,0,0,0v0l-.09.06,0,.14,0,0,0,.09v.2l0,0,.11.09.14.08v0l-.05,0-.06.06,0,.08,0,.06.06,0h.14l.28.08.11.09.12.11.08.09.06.11.06.14,0,.14,0,.14-.09.12v.14l.14.11,0,.06,0,.28.11.54v.29l0,.05.06,0,.05-.06,0,0,.23-.06.11.14,0,0,0,0,.08-.06.12,0-.06.05,0,.06.06.06.08,0,.15,0,.25-.12.14,0,.14.06h.17l0-.06.06,0,.08,0,.06.09,0,.06,0,.28v.14l0,.14.06,0h.05l.06,0,.2-.17.2-.08.2,0,.19,0,.2-.08.26-.17.08-.31.37.36,0,0h.06l.14-.06h.05l.06,0,0,.05v.23l.08,0h.12l.2-.09.14-.14h0l0,.06.06,0h.06l.05-.06.06-.08-.06.14v0l.06,0,.06,0h0l.09-.11v.14l.08.25,0,.49,0,0,.06,0,.68-.31.82-.37.06-.08,0-.12,0-.11.12-.14,0-.06.06,0,.06,0-.12-.11,0-.06,0,0,.09,0,.08,0,.06-.06,0-.09,0-.14v-.14l-.09,0v-.06l.06,0H180l.05,0,.09,0,0-.11,0-.14-.05-.11-.14,0-.06,0-.06,0,.14-.11,0-.15,0-.05v-.09h-.17l0,0,0,0,.17-.09.06,0,0,0v-.09l.05,0,.12-.06,0-.06,0-.08v-.06l0-.06v0l0-.06,0,.09.06.08.05,0h.09l.11,0,.09-.08.08-.12.11-.11.15-.06.19-.08.06,0V117l0-.05v-.15l-.11-.28v-.14l.06-.51,0-.11.23-.46,0,0,.08,0,.09-.06.06-.06,0-.08,0-.09-.06-.08.11,0,.09.15.11,0,.14,0,.26,0,.25,0,.17-.06.12-.11,0-.09-.14,0-.26-.26-.2-.11-.37-.26-.08-.08-.17-.2-.09-.11,0,0-.06,0,.11,0v0l.09-.08.11-.06,0,0v-.06l0-.06-.17-.2-.08-.14,0-.08-.06,0-.08,0,0,0,0,0,0,0-.08,0-.09,0,.09,0,0-.06v0l-.06,0h-.08l-.11-.09-.09,0,0-.06.09-.14-.06-.09-.23-.2-.05,0h-.06l.14,0h.34l.06-.06,0-.08,0,0,.09.06h.11l.09-.06,0,0,0-.06v0l-.11-.08-.09-.06v-.06l-.11-.11,0-.06.08,0,.06-.05.06-.12.05,0h.06l.2.08.14,0,.14-.06.14,0,.17,0,.17,0,.06,0,.06,0V111l0,0-.28-.2-.18-.2.09-.2.06,0h.08l.2.06h.14l.29-.06.25-.08.11-.06,0-.05,0-.06v-.14l0-.06,0,0-.15,0h-.11l-.28-.14-.14,0,0-.11-.06-.06-.06,0-.11,0-.06,0h-.05l-.12.08-.14.06h-.06l-.05-.09v0l.17-.06,0,0,0-.14-.06-.09-.14.09-.09,0-.36,0,.14,0,0-.09v-.08l0-.14.08-.09v-.08l0-.09,0-.06-.06-.05-.14-.06-.14-.06-.12-.08-.05-.11v-.17l0,0-.12,0,0,.06-.09.14-.11.17-.11,0h0l0-.11,0-.08v-.06l0-.14-.06-.06,0,0-.25.45-.06.09-.43.45,0,.14-.06.14-.17.2-.06.14-.08.09h-.12l-.08,0,0-.06-.06.06-.17.17V110l.06.08.14.09,0,.11,0,.06-.12.08-.05.06-.29,0h-.14l0-.09v-.06h-.06l-.17.09-.11.08-.12.09-.11.08-.14.09-.14.06-.14,0h-.15l-.05,0,0,0v.17l0,.17,0,.06-.25.28-.31.31-.15.2-.22.26-.12.17-.05,0-.09,0-.22.09-.74.2-.46.08-.11,0-.14.08-.09.15v.31l0,0h-.06l-.06,0-.05-.06,0,.06,0,.08,0,.12.06,0,0,.09-.06.08,0,.09,0,.2,0,.05-.09.06,0,.08,0,.09.09.06.11,0H174l-.06,0-.2-.14-.06,0h-.14l-.11,0-.34-.17-.06,0-.05,0h-.23l-.14,0-.14-.06-.17-.11,0,0-.09-.17-.28.11-.09.12-.05.14-.12.11-.11.14,0,.06-.05.23h.14l-.06,0-.06,0Zm1.65-23.78-.06-.06-.08,0-.06.06,0,0h.14l.08.06,0-.06v0l0-.06-.11,0Zm4.25-1.42v-.08l.06-.06-.2.06-.06,0,0,0h.17Zm-7.65,30.1v.12l0,.08,0,.12h.06l.2-.06,0-.09h0l.08.06,0,.06v.05h.08l0,0,.12-.06,0-.06,0-.11.12-.2-.09-.17-.17-.11-.23-.06,0,0-.2.06,0,.2-.06.08v.09l0,0,0,0Zm7.9-30.1v-.06l-.08,0h-.06v0l.09.09,0,0Zm-1.89.62-.12.06,0,.06h0l.12,0Zm.14.17,0,0v-.15l0,0,0,0h0l0,.06-.06,0,0,0v.06l0,0Zm-1.68,22.6h0l0,0v.37l.05.06,0,0v-.37Zm-7.68,3.65h0l0,0h.06l-.06,0-.06,0-.08-.09-.06.06,0,0-.08-.08-.09,0v0l0-.06-.11,0-.06.17-.05.08,0,0,.11,0,.17-.06.25.14Zm-.39-1.73v-.08l-.12,0-.08,0-.09,0-.14.09V115h.06l.17,0,0,.06,0,.06.05,0v0l0,0,.09,0,0,0,0-.11v-.12l0,0,0-.06Zm.08,1.22-.14-.14h-.06l.12.17,0,0,0,0,.06,0v0l0-.06Zm-.34.6,0,0h0l-.06.08.08.09,0,.14.06-.08.08,0,0,0,.06-.09.06-.06,0,0-.12-.12-.14.09Zm3.71,2.95,0-.06h-.08l0,0v0l0,0Zm-2.58-1.22-.14.05-.05.06v.08l.14.06,0,0h.06l.26-.06,0,0,.12,0,.08.06,0,.14.06.14,0,0,0,.06,0,.17,0,.11.09.08.14,0,.14.06.11.06.06,0,.06,0,.05,0,.06,0,.09,0h0v-.09l0-.08v-.06l.08-.23,0,0,.06-.06.08-.06-.54-.14-.2-.31-.05-.37,0-.08-.06-.09,0-.08,0-.09-.05-.06-.09,0h-.11l-.11,0,0,.15-.05.08,0-.06,0-.08-.06-.11-.14,0-.05.06-.06.06v0l0,.06v.08l-.06.06Zm15.08-13.16h-.11l-.17.17-.17.15-.08.08-.15.17-.08.06-.11.2,0,.11v.11l.11-.08.11-.06.06,0,.06,0,0-.05,0-.06.15,0,.11-.05.14-.09.11-.08.09-.12.08-.14.12-.08.14,0,.11-.06.09-.08.08-.12.26-.39,0-.12,0-.05.06,0,.14-.06.28-.08,0-.06,0-.06.05-.11.12-.09,0,0,.15,0,.05,0,.12-.11v-.06l-.09-.2-.11-.28,0-.12,0-.05V103l0-.14v-.06l-.06,0-.06.06-.14.31,0,.09-.05.14.05.11,0,.09,0,.14-.08.11-.06.06-.06,0-.08,0-.06,0-.22.26,0,0-.12.08-.22.29-.23.22-.28.31-.12.09-.05,0Zm-12.84-1.41h0l0,0-.09,0v.06l.12-.08,0-.06Zm-.22,19.47-.09.09,0,0h-.06l-.17-.08-.11,0h-.15l-.14,0-.23,0-.11,0-.06,0-.11.08-.08.11-.09.4,0,0-.05,0-.06,0L167,124l0,.06-.11.14h0l-.05,0,0,0,0-.11h0l-.08.05,0,.06,0,.06h0l.09,0h.05l.06,0H167l.14,0h.15l.14,0,.31.08.4.14,0,.09-.06.08,0,.09v.08l.06.06.09,0,.11,0,.54,0,.25,0,.31.09.06,0,.11.08.15.06.14.06.37.05.14,0h.14l.08-.08.06,0,.2-.06H171l.14.06h.37l.68.14.23.08.68.32.25,0,.26.06.34,0,.2,0,.71,0,.28,0,.28.06h.23l.14,0,.14-.06.15,0h.14l.51.23.28.12.26,0h.14l.08,0,.06.06.08,0,.15,0,0,0v-.06l-.14-.08,0-.06-.08-.17v-.17l.06-.31v-.15l0-.11,0,0-.37-.17h0l-.2.06-.14,0-.28,0h-.31l-.29-.09-.25-.11v-.29l-.06,0-.11-.06,0-.06-.06-.14-.05-.14-.12,0h-.39l-.12-.11-.31,0-.06,0,0,0-.12-.06h-.05L174,124h0l-.2,0,0,0-.17-.26,0,0-.17,0,0,0-.06,0-.06.06,0,.06-.05.14-.06.14-.08.11-.12.06h-.11l-.09,0-.08,0h-.17l-.17,0-.14,0-.29-.08-.11,0-.11.06h-.14l-.35-.06h-.28l-.11,0-.09-.08-.08-.26,0,0-.11-.12-.12-.11,0,0h-.05l-.06,0h-.08l-.15,0-.14-.06-.14,0h-.14l-.11,0-.12-.09-.11-.14-.06,0-.2,0-.14,0,0,.11Zm-.88-10.74v-.09l0,0-.06,0,0,0,0,.08Zm.34-6.64,0,0h0l0,0v-.08Zm-1,6.92h.05l.06-.06,0-.08h-.06l0,0,0,0-.06,0v.2Zm-2.58,3.63-.09.08,0,.09.17,0,.17,0,0,0-.05-.06-.14,0h-.09ZM188.7,87l.08,0,.06-.06v0l-.2-.06,0,0v0l-.08,0v0h.08l.09,0ZM187,79.88v-.14h-.06l0,0,.06.11Zm-.57,18.85h.09l0-.11-.06-.17.06-.09h0l0,0-.08-.06h-.17l0,.08.06.06,0,.09,0,0v.09l0,0,0,0Zm.06.62.25.17v0l-.25-.23,0,0v.06ZM189,100l.14.08.09-.06h.06l0,0,0-.08.06-.06v-.08l0-.15-.09-.08,0,0-.11-.17-.06,0,0,0,0,0v.23l-.12.14,0,.06Zm1.65-13.64-.06,0-.08,0,0-.06,0,0,0,.17.11,0,.12,0Zm-8.71.4,0-.09,0,0-.08-.06h0l0,.06v.08h.06Zm9.59-11.48,0,.08,0,0,.05.09v0l.06,0,.06,0,.31,0,.14-.06.2-.08,0-.06,0-.09,0-.08-.17-.06h-.09l-.42.12Zm-2.27,26,0,.2.08.2.09.11.11.09.06,0,.11,0,.08.11.06.06,0,0,.09.09.05,0h.09v.08l0,.09-.09.08,0,.09.12.17,0,0,.09,0,.08.14h.09l.14,0,.23,0h0l.09.09,0,0-.06-.11-.09-.09h0v-.06l0,0,0-.06-.12-.2,0,0v-.15l0,0V102l.05-.11v-.09l0-.05-.05-.09-.09,0h-.06l0,0v-.08l0-.09-.09-.08-.11-.06-.37.06h-.34l-.31-.06Zm-.14-14.37.05,0,.06-.19,0-.06,0,0-.11.17H189l-.06,0,0,.06.06.11.06,0Zm-3.49-4.82,0,0,0,0-.08.08v.09h0l.11,0v-.06Zm.79,11.54.09-.08-.06-.06-.05,0,0,.05v0l-.06.09,0,0Zm-4.14-6.86,0-.08-.09,0h-.05v.06l.17,0Zm4.09,4.48h0l-.06.11v.06h.06l.06-.11Zm-2.13-3,0,.09,0,0,.06.06,0,.08.11.32.06.11.05.11h0l.09.09.11.06.11.11,0,.06.09.19,0,.17,0,.09.12,0,0-.14,0-.15v-.14l0-.14.06-.14.08-.14.17-.2.17-.23.06-.11.06-.14.08-.32.06-.31.05-.22,0-.23,0-.09.11-.19.12-.32v-.14l0-.14v-.08l.06-.09.08-.08,0-.12-.05,0-.15-.06,0,0-.06-.06-.06,0H186l-.09,0-.11.11-.31.11-.06,0-.08.14-.09.14-.08.12-.09.11-.14.2-.57,1,0,.06V88l0,.17,0,.11,0,.12ZM185.78,93l0,0v0l.11.06H186V93l-.14-.06Zm.77-13h0l.12.09v-.06l-.06-.11h-.06l0,0Zm-2.44,16.84-.06,0-.06,0-.05-.06-.06,0,0,0v.32l.06,0,.06.06,0,0v0l.06.49,0,.11.06.14,0,.14v.17l.06.14.06.06h.08l.06,0,0,.14.08.09,0,.14.06.05,0,0h.09l0-.05v-.15l0-.19.06-.15.05.09.09.06.11,0,.11.06.06.09v.11l0,.08-.28.26-.06.06,0,0v.23l0,.23.12-.12.14,0,.11.14h.09l.11.09.14,0h.17l.11-.08v-.09l.06,0,.17-.09.06,0h.08l.34.17.17.17.2.15,0,0,.11.15,0,.05v.06l.12.09.08-.09v-.17l-.06-.14,0-.06-.12-.11v-.2l0-.09,0,0h.06l.06,0,.22.19.09.15,0,0,.31.17,0,.06,0,.06.12.17v.14l0,.06h.11l.25.14.15,0h.08l.09,0h.05l0,0-.06.14,0,.14.11.11.11,0,.09-.25v-.29H189l-.14-.08-.08,0h-.12l0-.08v-.09l-.06-.11-.08-.09-.11-.11-.06-.14.06-.09.22,0,.06-.08-.06-.06-.11-.06-.06,0h-.05l-.23-.09-.06-.08,0,0-.06,0,0,.06.06.06v.11l-.09.11h-.14l-.06,0v-.06l0-.06v0l0-.14-.09-.15-.08-.08-.12,0-.17,0h-.17l-.11.06-.11.08-.06,0-.06,0v.06l.09.08,0,.06-.09,0,0,0h-.08l-.09,0-.2-.09-.05-.06-.06,0,0-.06,0-.08-.11-.29,0-.11v-.11l.09-.06v0l0,0-.14-.25-.15-.26-.05,0v-.06l0-.06,0,0,.06-.12.11-.14,0-.06V97.6l0-.06,0-.06,0-.14.12-.08.11-.09.23-.08.2,0,.08-.2v-.11l.23-.49.05-.19,0-.09,0-.08-.06,0-.08,0,0-.09v-.08l0-.06-.11,0,0-.06-.08-.17,0-.11V95.1l0-.37.05-.11.09-.08,0-.12,0-.11,0-.06-.06,0-.08,0-.09.15,0,0-.12.06h-.11l-.14-.06-.15,0-.39-.23-.17-.06h-.06l-.14,0-.06,0h-.05l-.12.09-.14,0,0,.17,0,.12-.05.11-.17.65,0,.12,0,.11v.08l0,.15v.39l-.11.23,0,.14v.14l0,.15.09.22v.09l0,0,0,.06-.09,0h-.14l0,0-.11-.14-.06,0Zm2.38-5.19-.06,0,0,.11h0l0,0,.09-.12Zm.37-11.93,0-.09-.06-.05-.2-.09h-.17v.12l.06.05.17,0,.14.09,0,0Zm-35.18,25.48,0,0,0,0v.06l0,0h.06l0,0,0-.09Zm33.87-11.9v.11l.06.06v-.17l0-.06Zm-27.46,8.3H158l0,.06.06.08,0,0h0l0-.05v-.12Zm-3.26,8.68,0,.14.09.11.11.11.48.49.29.22.08.12.17.2.09,0,.34.06.11.06.09.08.25.34.09.11.08.15.09.11.22.14,0,.09,0,.14,0,.22,0,.17.12.09.14,0,.11,0,.09,0,.56.34,0,.06.14.2.12.25.17.54.14.4.06.25.05.15.09.08.11.06.31.11.09.06,0,.08.17.34.09.12.11.08.09.09.23.28,0,0,.12.31.11.23.43.73v.26l.05.11.06.12.2.28.11.08.11.09.09.08.06.12.19.31.09.08.2.17.37.26.08.08.23.34.2.23.45.37.26.14.11.09.11.11.09.06.42.25.09.06.28.37.11.08.12.09.14.17.14.14.14.11h0l.06,0v-.08l-.06-.2v-.08l0-.06.34.2.11,0,.06,0,.06,0,.19-.17.06,0,.2.14,0,0,0,.06,0,.06.06,0h.08l.06-.12,0,0,.08-.8v-.54l0-.45V121l.11-.28v-.06l0,0,0-.06v-.14l0-.2,0-.06.17-.17,0,0v-.12l-.17-.25-.37-.48L167,119l-.12-.06-.14,0h-.31l-.06,0-.05,0-.06,0-.17.17-.06,0h-.05l0-.06,0-.14,0-.06.14-.11,0-.06,0-.08v-.09l-.05,0-.15-.06-.14-.09,0-.11v-.14l-.06-.11,0-.29,0-.14-.05-.2,0,0-.12,0h0l-.17,0-.14,0-.26-.12-.17-.11-.06-.06-.11-.19v-.06l.09-.09,0,0-.12-.06.06-.11,0,0,0-.06.2-.14.14-.06.09-.08-.06-.14-.09-.14-.11-.12-.11-.11-.09,0h-.08l-.09,0-.2.11-.11.09-.11,0-.15,0-.28,0,.28-.08.26-.15.06-.08,0-.11-.11-.12-.12,0-.34,0-.11,0-.09-.09-.17-.17,0,0,0-.14-.06-.14-.09-.11-.08-.12-.28-.19-.12-.06h-.14l-.11,0-.09-.08-.05-.15-.06-.14-.09-.11-.19-.17-.15-.06h-.08l-.06.06v.11l.09.12v.11l-.09-.06-.17-.14-.08,0-.09,0-.08-.09-.06-.08-.06-.09-.05-.06-.23-.22-.11-.17-.06-.12-.08-.11-.2-.23-.26-.14-.45-.31-.34-.14-.12-.06-.08-.08,0-.06,0-.06-.14-.08-.25-.11-.09-.12,0-.14,0-.11-.28-.26,0,0,0-.14-.06-.11-.22-.2-.14-.14-.06-.06-.06,0h-.05l-.32,0-.11,0-.14-.05h-.14l-.29.05h-.14L156,110l-.14,0-.12-.06-.22-.2-.12-.08-.14,0-.14,0H155l-.14,0-.06,0v0l0,.06v.06l0,.08,0,.09.2.37Zm2.6-13.47,0-.17v0l0,0-.05,0h0l-.06.06v.19l.06.09.06,0Zm-2.66,12.5,0,0v0l-.09,0h-.05l0,0,.08.11.06,0ZM192.19,74l-.06-.05h-.06V74l.06.06h.08Zm-33.88,31.41v-.06h0l0,0v.06h.05Zm0-1.16h-.08l-.09.08,0,.12h0l.06-.06.06,0,.05-.05Zm.37-2.27-.11-.06-.09-.08v0l0,.2h.06l.08,0,0,0Zm-.22-.76,0-.06-.12,0v.09l0,.11,0,.2h0l.06,0,.08-.14v-.12h0l0,0Zm-.17-.71v.22l.05.09v-.2l0-.06Zm6.52,14.6,0,0v.06l.11.06v0l0-.06Zm-12-7.72-.05,0-.06,0,0,.06.06.06.11-.12-.05-.06Zm-1.47-4.11-.08.09,0,.06,0,.11v.11l.11,0,0,0,.08-.17,0-.11,0-.11-.09,0Zm.23-.76v.08l-.06.06.06,0,.05,0v-.08Zm1,3.91-.06.06v.2h0l.06-.06,0-.11,0-.06h-.06Zm-.2.26,0,0,0,.06,0,.06h.08v0l0-.06-.05-.08h0Zm.34-13.07-.14,0,.08.14.12.11h0l0,0,0-.11v-.06l-.14,0Zm1.13,3.49.06-.15,0-.08-.05.06-.06.08-.11.11,0,.17.09-.11.11-.08Zm-1.27-4.71-.09-.09v.09l0,.08.09.06,0-.17Zm1.56,5,0-.08v-.06l-.12.14h0l.06,0Zm-1.31,10.55.15.31.08-.09.06-.17-.09-.28,0,0-.18.06,0,0v.15l.05,0Zm10.43,6.49-.51-.15,0,0v.06l0,.06.09,0H163l.11.06.06.06.08,0v-.15l0-.05Zm.09.45-.06.06,0,.11,0,.06,0,.08.05,0,.06,0,.2.06h.08l.23,0,.06,0,0-.06,0-.14-.06,0-.2-.08-.05,0-.12-.09Zm.54.08-.26-.11h-.08l0,.11h.11l.12,0,.08.06.09.09,0,0H164l0,0-.11-.18-.09,0Zm.2.63h.14v-.09l-.06-.11h-.05l0,.06,0,.11Zm-1-1-.08,0h0l0,0v.09l0,.14,0,.09,0,.08.06.06.06,0v-.09l0-.11v-.08l0,0-.06-.12Zm1.85-.08-.12,0-.14,0-.06.11.2.09.17-.09,0,0,0,0-.05,0Zm.22.57v0l.09.12.08,0,0-.06-.05,0-.06,0Zm-.11-.29,0,.06H165v.06l0,0v0l0,0,.12,0,.08-.11v-.12l0,0-.09-.06Zm-.74.14,0-.08,0,0-.06,0,.06.09.08,0V115l0,0Zm-.08.35.11.14,0,0,.06-.06,0,0-.06-.06-.06-.06,0,0Zm-6.32-13.78h-.06l-.06.06,0,0,.06.06.05-.08v-.06h0Zm.65,5.16-.09-.06.06.23,0,0Zm3.46,7.48.11,0,.14-.09,0-.11.06-.08v-.06l-.06-.09-.09,0-.11.08H162l-.06.06V114l.09.17,0,0Zm-3.75-7.54,0-.06,0,0-.06.26,0,.17h0l.05-.06h.06v-.17l.06-.14Zm-.34-4.34-.05-.11v.2l.08.08v-.11l0,0Zm.09.94-.09.08H158l.08.09,0,.11h0v0l-.11-.2-.06,0,0,0Zm.06-.71,0,.11,0,0h0v0l0,0,0-.09,0-.14v-.08l0,0-.06.15-.05.08Zm2.55,7.31,0,0-.09,0-.05,0,0,.19.08,0,0,0,.06-.14Zm1.19,2.81,0,0-.06,0v.09l.06,0v-.06Zm-2-4.19.05.08h0l.06-.06-.06-.17-.06.15Zm.05.28.06,0,.06.08h0l.06,0,.06,0,0,0,0-.06-.08-.11,0,0-.09,0,0,0h-.09v.09Zm-.68-1.45,0-.05h0v.08l0,.06.06,0,0-.15Zm-.71-4,0,0h.06l0-.15-.06.15Zm1.9,1.56v-.09l0,0h-.09l0,0,0,.06Zm-7.51-11.62.06,0,.11,0,0,0,0-.06v0L153,93h0l-.15-.12,0,0-.06.06,0,0,.08.06,0,.11ZM187.79,126l-.08.08v.06H188l0-.06,0-.11-.15,0-.11,0Zm-27.61-21.09v.11l0,.06.12-.06,0-.08v-.06h-.14Zm2.89-3,0-.08H163v0l0,.17h.08l.06,0v0l0-.06Zm5.39-10.6.09.12h0v0l0-.06v0l0,0-.11,0-.06,0Zm.77-.48-.12-.06,0,0L169,91h.05l.17-.14h0Zm-.94.45,0,0,.06.06V91.3l-.06-.08Zm.74,0h.08l.06,0,0-.06v0l0,0-.06.09-.08.06Zm-5,12.27.05.09.06-.06-.11-.09v.06Zm-.8-1.08,0,.06.06.06,0-.12-.06,0,0,0Zm.54.37v.06l0,0h.06v-.12h0l0,0Zm12.47-14.06h-.08l0,.06.05,0h0l.09.08v0l0-.06-.06-.06ZM165.12,104l0,0-.06-.06H165l-.11.06h-.06l0,0,.12.11.08.25,0,0v-.06l.06-.14V104Zm0,9,0,.06h.09V113l-.06-.11,0,0-.06.12ZM186,77.67l0-.06-.06,0,0-.08-.15-.06h-.14l0,.06.14.14.23.12.31.11.09,0,0-.06-.06,0-.28-.12Zm.2,39.06-.09.09,0,.05h0l.06,0h.14l0,0,0-.05-.06-.06h-.14ZM184,103.83l.08,0,0,0-.09,0-.11,0-.11.12,0,.11.14,0Zm1.61,5.3-.08,0-.06-.08-.14,0-.17.11,0,.06.06.06.11,0,.08,0,.17-.06.09.08.14-.08v0l0-.06-.14,0Zm-1.13-7.2-.09-.08,0-.09,0,.06-.06,0-.06,0,0,0-.14-.08-.05-.06h0v.06h0l0,0v.05l0,0,.08.14.06.09.11,0,.09,0,.08,0h.09l0-.09Zm-.46,8.31.06-.09.11,0,0-.06,0,0,.06,0,0,0,0-.09,0,0,0,0h-.06l-.11.08-.12,0-.19.11v.09h0l.09,0Zm-.19-24.89,0,0-.06,0,0,.06,0,.06,0,0v.09l.06,0,.08-.06v0l0,0,0,0v-.06l0,0Zm-.34,32-.17.39-.06.2V118l0,.12,0,.08.06.2,0,.11-.09.12-.08.14,0,.14v.14l-.06.12-.17.14-.05,0-.06,0-.06,0,0,.06v.06l.06.11,0,.09-.06.14V120l0,.14,0,.14.06.12.08,0,.28-.08.15,0,.05,0,.06,0,0,.06v.06l0,0v.09l0,.06.14.28,0,0,0,.45,0,.11-.06.15,0,.14v.17l-.12.22-.05.15,0,.14,0,.14.11.11.11.12.2.08h.06l0,0,.12-.08.05,0h.15l.14,0,.05,0h.06l.14.06,0-.11,0-.12-.15-.28v-.06l0-.14.12-.28,0-.14,0-.23,0-.4,0-.28.05-.11v-.06l-.05-.43,0-.11-.09-.11-.05-.12v-.11l.08-.08.26-.17.14-.09.14,0h.14l.14,0,.09.09,0,.14v.14l0,.2,0,0-.17.23,0,.06v.08l0,0,.48.43.11.08.15,0,.08.08v.09l0,.06,0,0,0,.06-.06.34,0,.11.08.09.06,0,.11,0,.2,0,.14,0,0-.06,0-.14v-.06l.09-.08.11-.06.31-.09h.23l.06,0v-.09l.11.06h.06l0-.06v-.23l0-.05,0-.06h-.06l0,0,0,0-.09,0-.06-.09-.05,0v-.09l0,0-.06,0-.11-.14-.06,0-.05,0-.06,0,0-.06v-.11l.06-.17V120l.08-.09,0-.05-.08-.12,0-.05,0-.06v-.06l-.26-.19-.08-.12-.06-.14-.14-.25-.09-.12-.05,0-.12,0-.05,0-.09-.12-.11-.08-.06,0v-.09l.06-.05.14.05.09,0h.08l.09,0,.08-.11.09-.08.37-.12.11,0,.11-.06.2-.17.17-.2.09-.14.11-.11.06-.06,0,0,.17,0,.12,0,.08.11.09,0,.08,0,0,0,.06-.23,0-.08-.06-.06-.11-.06-.14,0-.17,0-.17.06-.06,0,0,0,0,0v0l-.28,0-.14,0h-.31l-.12.06,0,.06-.06,0-.14.06-.14,0-.15,0-.05-.06-.06-.05h-.06l-.05,0-.12.08-.19.23-.09.11-.08.14-.15.09-.14,0-.14,0h-.17l-.08-.14-.12-.26-.11-.08-.2-.09,0,0-.17-.26,0-.11,0-.14,0-.15v-.14l0-.11.05-.14.06-.14.08-.12.15-.17.05-.05.14-.09.15,0,.14,0,.25.09h.12l.48-.06h.22l.15.06.14,0,.25,0,.26,0h1l.12.08.11.12h.06l.25,0h.28l.43-.08H189l.09,0,.11-.06.06,0,.11-.12.08-.11.06-.11.06-.09.22-.2.09-.11.09-.12.11-.22,0,0,.08-.09,0,0-.08-.17-.06-.06-.14,0-.06,0-.11.11-.09.12-.06,0-.11,0-.06,0,0,.11-.06.09-.14.06-.17.19-.4.2h-.11l-.68-.11-.26,0h-.05l-.06,0-.09.09h0l-.06,0-.17-.09-.14-.06-.14,0-.4,0-.28-.06-.34,0-.06,0-.06,0-.05,0,0-.06-.06,0h-.14l-.09,0-.14-.08h-.05l-.06,0-.06,0,0,.06-.09.11-.06.15-.05,0-.06.06,0,.06,0,0-.11.06-.11,0-.06,0-.06-.12h-.05l-.06.14-.08.12-.06,0-.06,0,0,.14-.05.06-.12.09-.11.25v.06l.06.17,0,.08-.06,0h-.05l0,.06.05.45.06.23,0,.11v.11l-.06-.11-.08-.08-.06.05-.17.2Zm.9-17.32v-.09l-.05-.08-.12-.06,0,0v.08Zm-25.14,18.34.14-.06v-.14l-.06-.09-.08-.14v-.06l0,0-.06-.12-.14-.22,0-.12-.08,0-.23,0-.08.26,0,.08.22.34v.09l.06.06.23.14h.11Zm24.6-15.74-.08.06h0v.06l.09,0,0,0,0,0,0-.09,0-.06Zm7,1.28h0l-.06.06,0,0-.06,0v.14l0,.09.06,0,.05.11.06.06,0,.05,0,0v-.06l0-.14-.06-.2.06-.17,0-.06Zm-1.93-1-.08.11v.06l0,.05,0,.06v.09l-.11.28-.12.2,0,.11-.14.2-.08.2-.14.2,0,.08-.08.37V105l0,.09,0,0,.15-.17.17-.4v-.11l.05-.14.12-.11.11-.06.08-.06.06-.11.06-.23,0-.23,0-.19v-.12l0,0v-.05l0-.14,0-.06Zm.06,1.44,0,.09-.17.08-.06.06,0,.09,0,0,.06.12.09,0,.22,0,.29,0,0,0,.09-.11h.11v-.11l0-.06,0-.17-.11-.06-.09-.08h0l0,0-.2,0-.09.08Zm-2,.2,0,.09v.14l.17.25.05.06.06,0,.14.06.11,0,.09.26.06,0h.17l.08,0,.06,0,.08-.12,0,0v-.06l0-.06-.2-.28v-.06l0,0v-.17l0-.09.09-.14,0-.08.06-.23.09-.17.11-.14,0-.09.05-.14v0l-.05-.11-.31-.09h0l-.23.09-.06,0,0,0v.17l-.06.12-.06,0,0,.06,0,.14,0,.14v.26l-.17.11h-.22l-.06,0-.06.09Zm1.48.74h0l-.11.06h-.06v0l.06.09.08,0,.11,0v-.11Zm-2.13,3.23v.06l.09.11h0l.11,0,.14-.05.06-.12.08,0,0,0-.28-.12-.17.09-.09,0,0,0Zm.29-7.26-.12.06,0,.2-.05.06,0,.05,0,.06.05.06,0,.05.05.12.09-.32,0-.22v-.09l0,0h0Zm1.3-.31-.2-.25h-.11v0l0,0,.08.06.14.14.14.09.12.11-.12-.17Zm.74,2.1-.06-.17h0l0,0,0,.11h.09Zm-1.45.82h0l0,0,0,0,.05-.2v-.06l0,0h0l0,0,0,0-.11.11,0,.14,0,.09.05-.06Zm-11.31,43.51-.14-.37,0,0-.06.06.06.25.23.4,0-.06,0-.11,0,0v-.08Zm5-41v.09l0,.08.08,0v-.08l0,0h-.05Zm-18,16.08h-.06l-.06.05,0,.06.17.14H163l0-.08,0-.06-.2-.09Zm5.41-2.78v0l0,0,.06,0h.05l0,0,0-.08-.14,0-.06,0ZM166.5,124h0l0,0-.09.08,0,0,.06,0,.08,0,0-.08,0-.06Zm-6.57-5.13-.06-.14-.08-.06h-.06v.11l0,.06.09.11.08,0,.2.12v0l0-.06-.08-.11Zm7.06,9.81h-.09l0,.05.09,0,0,.06,0-.09,0-.08Zm-6.21-8.71v-.08l0-.06-.25-.25h-.06l0,0,0,.19.06.09.08.06,0,0v.09l.14.11-.06-.17v-.06l0,0Zm-.54-.34h.14l.09-.08v-.09l-.23-.19,0,0,0,.09v0l0,0v.15l0,.05Zm17.06,5h0l0,0,.05.08h.06l0,0,0-.06h-.06Zm3.8-12.36,0,.06.11.08,0,0,0-.15-.06,0h-.11v0Zm.23-.73.23-.06v-.06l0-.11-.14-.09h-.12v.06l-.05.09.14.14Zm-.88-4.8,0,0v.14l.09.12.05-.09v-.22Zm.09.94v.09l0,.08.09-.06.11,0,0-.06,0-.09,0-.08-.14,0-.09.08Zm8.64-4,.09,0v0h0l-.06,0-.06.11h.06Zm-18.4,9-.08.11.06,0,.05-.06v-.11h0Zm-.08,5.38,0,.11.14,0v-.06l-.09,0Zm1-.68h-.17l0,.06,0,.22.05.06h.06l.23-.11.05,0v-.06l0-.08-.06,0-.11,0Zm4.09,7.37.11,0,0,0h.37l.08,0,.14-.08h.2l0,0,.06-.06.22-.08v0l-.11-.11H175.8l-.22,0-.12.12-.05.08.05.09.34.08Zm-.46-1.76-.08.09,0,.06h.11l0-.06v-.06l-.06,0h0Zm10.57-21.68,0-.06-.08-.22v-.12l0-.11,0-.09,0,0-.08-.06-.11-.08-.09-.15-.08-.05-.09.05-.06,0,0,0-.06-.06-.08,0-.2,0h-.06l-.06,0-.22,0h-.09l-.05.06,0,.09h.11l0,0,0,.09,0,.06.08,0,.09.06,0,.06.12.19v.2l0,.06,0,.06.06,0,0,.09v.08l.05.09.12.11,0,0,0,0v.05l.06,0,.09,0,.05-.06,0,0h0l.06,0v-.08l0,0v0l.06-.11.09-.09Zm10.55-24.69.06-.06.05-.08-.11,0-.14.08,0,0h.17Zm-2-3.43-.09.11-.11.09,0,0,.14.12.11-.09,0-.28Zm.54,2.58,0-.09-.09.23,0,0,0,.06,0,.11h0l0-.11.06,0,0-.06h0l0-.08ZM194,113.36l-.14.2.06.25.05.06.2,0,.12-.06.08-.14.09-.28-.12-.14h0l-.11,0-.17.12Zm-1.16,2.12v.06h0l0,0,0-.05v-.06l0,0h-.06l0,.09Zm1.76-39.26,0,0h-.06l0,0-.06,0,0,.17v0l.06,0,0,0,.06-.06,0,0h.08l0,0-.06-.09Zm.14,6.3-.06,0,0,.08,0,.14.06,0,.06,0,0,0,0-.06-.06-.11Zm-6.44,40v.06l0,.06h.06v-.12l-.09,0,0,0Zm0-4.39,0-.06h0l-.06,0v.17l.06,0h.08l0-.09,0,0Zm-.08,10.2,0,0-.09,0-.08.12v.08l.11,0v-.08l.12,0v0Zm-.68-2,0,0,0,.06.06,0,0,0,.05-.06.14,0,0,0-.06,0h-.09l-.08,0Zm-.14,2.75v.11h.14l.05,0,.26-.08L188,129l.14-.06v0l0-.05v-.12h0l0,0-.09,0-.14.14-.11.06-.26.08Zm0-7.09,0,.14,0,.06v.06l0,.14v0l0,.06-.08.08,0,.06v.05l-.06.09v.06l.09.14h.05l.06,0,.08.06.06,0,.09-.14v-.06l0-.06,0,0,0,0,.06,0,.08,0,.09-.09,0-.08-.06-.06-.11-.09h0l-.06,0v-.06l0-.19,0-.06V122l0-.08h.06l0,0,0,0,.05.08v0l0-.26-.15-.14v-.06h0l-.12.06-.11.2V122Zm35.92,5.11v0l-.06-.06-.06,0-.05,0-.06,0H223l-.06,0h0l-.09.06.14,0,.09.09,0,0h.05l.14.06.06,0h.06v0l0,0v0Zm-20,5.49,0,0,0,0v.06l.11,0h0l.06,0,0-.12-.06,0,0,.08Zm-17.12-3.85-.12.06,0,0,.14,0h.06l.11-.08,0-.09-.05,0h-.12Zm3.45-23.39,0,0,0,.06,0,.06.14,0,0,0,0-.06-.06-.06h0ZM183,126l0,0v0l0-.06h0l-.06,0,0,.06v.06h.06l0,0Zm4.17-24.29.06,0,0-.09v-.05l-.09-.09H187l-.06.06,0,0,.09.05Zm1.13-.2-.11-.06-.14-.06-.11,0v.11l0,.11,0,.09,0,.25-.06.17v.06L188,102l.14-.2.06,0,.06,0,.08.11.06,0v0l.08.06v0l0,0,.11,0,.17.11.09.09v-.06l0-.2-.17-.25-.23-.14-.17-.14,0-.06Zm-1.87-1.34h-.11l-.06,0,0,.17,0,.11.06.06.14.08.06,0v0l.09-.12,0-.05v-.06l-.14-.12Zm.37,1.22,0-.08h0l0,.06,0,0h0l0,0Zm-.34.77h-.08l-.06.06,0,.08.06,0,.14,0,0,0v.06l-.06.37v.28l0,.14-.05.15,0,.14,0,0v.09l-.06.17v0l0,0,0,0,.08-.06.06-.08.11-.06.4-.09.17-.14.11,0,0,0v-.09l0,0,.06,0,.11,0,.08-.06.06-.08.06-.12,0-.08,0-.09v-.11h0l-.26.11v0l0-.06-.11-.08-.14,0-.15,0-.14,0-.11-.12-.14-.08-.26-.11-.05-.06Zm3.32.4,0,0,0,0,0,0,0-.06-.06,0,0,.06.06.09,0,0Zm.45,1.67h0l0,.11.15.14v-.05l-.06-.17Zm-.82-1.59h.14l0-.06-.06-.11-.05-.06h-.09l-.08,0,.08.17.06.06Zm-.85-1v-.11l-.09-.2-.11-.08,0,0,0,.09.14.2.06,0Zm.62,1,0,.06,0,0,.06.26,0,.28.06,0,.14-.06h.06l.08.09.06.11v.12l-.08.28,0,.14v.17l0,0,.14.06.12.08v-.08l0-.09,0-.2.06.06.08.11.06,0v-.11h.11l0-.06v0l-.08-.15v-.14l0-.06-.06,0-.06-.06-.05,0,0,0,0-.19V103l0-.09,0,0-.09-.14-.14,0-.11.08-.09,0-.08,0,0,0-.06,0-.08,0-.09-.06-.05,0,0,.06Zm2.78,8.85,0,.14.08.11v-.06l0,0,0-.12-.06-.05Zm.17.22v0l0,0,.06,0,0,0v-.06l-.05,0,0,0Zm-.08-.25v.05h.08l.06,0,0-.17.08-.15,0-.08,0-.12-.05,0h-.06l-.06.17v.08l.06.09.06,0-.06.11-.08.11Zm.73,3.8,0,0v0l0,.06h0l0,0,0-.06Zm-.22,1.33,0,.17,0,.11h.08l.09,0,0-.11,0-.09.05,0-.11,0-.09,0Zm-.09,3.46-.06-.06-.19-.09-.06,0h-.31l-.29,0-.11.06-.17-.06-.06,0,0,.06v.22l0,.09.12.11,0,.06,0,0,.23.11.17.09.17,0H192l0,0h.09l.08,0,.17-.12.09,0,.08,0,0-.2,0-.09-.08,0-.06,0,0,0,0-.09Zm-1.33-15.31,0,.14,0,.06,0,0,0-.11,0-.09Zm-.37.11-.14-.11h-.06l0,.11.11.48,0,.17,0,.15-.14,0-.14,0h-.06l0,.11-.06.06-.11,0-.11-.09-.09,0-.08.06,0,.06,0,.22,0,.15-.14,0-.2-.08h-.06l0,0,0,.06-.06.14-.05.14,0,.06-.06,0-.2.06-.08,0-.17.09h-.06l.11-.11,0-.06,0-.23v0l-.08-.15-.11-.08-.15,0-.08,0-.09,0,0,.12-.06,0-.06,0-.17,0,0,0-.06.06,0,0,0,.06v.17l-.11.08-.11,0h-.17l-.09.06-.25.06-.06,0-.11.12-.14.17v.17l-.09.34-.06.11-.08.09,0,.14.09.11.08.06.09,0,0-.06,0-.06.09-.19.08-.2.14-.26,0-.08,0,0,.14-.12h.11l.09.06,0,.2,0,0h.08l.09,0,.08-.09.06-.11,0,0,0,.06,0,.05,0,.06.11.09.15,0,.11-.31v-.11l0-.06.08,0h.06l.06,0,.05,0,.06,0,.25.09.12.11.14.17,0,.06v.09l0,.08,0,.06-.06,0-.08.09-.09.14v.17l.09.23v.17l0,.14.17.2.22.14.29.14.34.14H190l.06,0,.11-.17,0,0h.06l.05,0v.12l0,.14v0l.05.15.09,0,.14-.08.17-.26.08-.14v-.28l-.08-.28,0,0-.08-.09-.06,0-.06-.08,0-.11.09-.15.08-.11.11-.11,0-.06v-.08l0-.06.11-.06h.06l.09.26.08.08,0,.12.06.11,0,.14,0,.28,0,.12.06.11,0-.2,0-.28-.05-.14,0-.06h.09l.17-.14.14-.2,0-.08v-.34l0-.15,0-.05-.05,0-.06-.09v-.11l0-.26v0l-.09-.14,0-.2-.08-.06-.14,0,0,0v0l.08-.09.06,0,.06-.12,0-.11-.11-.14,0-.06v-.17l-.12,0-.08-.09-.06-.11-.08-.11-.29-.17Zm.71-31,0,0-.11.11,0,.06h0l.05.06.09,0,.11-.09.06-.08-.06-.06-.11,0Zm-4,33.71,0,0,0,0v.08h.06l.11,0v-.06l0,0Zm3.83-34.19-.08.06.05,0,0,.08.06.09h.05l0,0v-.14l-.11-.12Zm-.11,31.27.05.08h.12l.05,0-.05-.08v-.09l-.06-.14-.08.17v.12Zm-7.09-2.47-.06,0-.05,0-.06,0-.06,0,.09.23v0l0,.06,0,0,.08,0,0-.09v-.11Zm41.1,20.15,0,.06,0,.09v.11l.06.14h0l.06,0,0-.2-.06-.09v-.11l0-.06,0,0ZM157,114.89l.09.14.05.14h.06l.17.12.08.22v.06l.17,0,.06-.09,0-.31,0-.11,0-.06-.14-.14-.12-.06-.25-.34-.14-.08,0,0,0,.06-.08.06h-.2l.25.28Zm69.56,9.69,0,.09.09,0,.11,0,0-.06-.14-.08,0,0ZM157,113.84v-.09l-.06,0,0,0-.12,0-.05,0,.14.06.11.11v0Zm1.22,2.89,0,.11,0,.09.11.06.09-.06.08-.17,0-.14-.08-.12-.09-.17-.05,0h-.06l.11.25,0,.09ZM156,113.5v-.06l0,0,0-.06-.28-.17-.06-.06,0,0-.11,0-.11-.14-.12,0,0,.08-.05,0,0,.06.08.14.09,0,0,0h.12l.31.2.05.06.09,0H156Zm69.84,9.41-.11-.08-.14,0-.06,0-.06-.06h-.05v.12l0,.22,0,.09.05.14,0,.06.12.11.08.06.09.11,0,0,.2.08,0,.12,0,.14.06.11.11.11.12.09.11.06.11,0h.12l.05,0,.06-.06.11,0,0,0,0,0,0-.11,0-.14-.06-.12-.08-.11-.12-.11-.11-.09-.06,0-.08,0-.06,0-.11-.2-.06-.06-.11-.08,0-.06V123l-.11-.19Zm-1.27,6.83,0,.06h0l.14,0,.06,0,0-.06-.06,0-.17,0,0,.06-.11,0Z"/></svg>